<svg width="103" height="71" viewBox="0 0 103 71" fill="none" xmlns="http://www.w3.org/2000/svg">
<mask id="mask0_932_1097" style="mask-type:alpha" maskUnits="userSpaceOnUse" x="0" y="0" width="103" height="71">
<rect width="103" height="71" fill="#016FD0"/>
</mask>
<g mask="url(#mask0_932_1097)">
<rect x="0.5" y="0.5" width="102" height="70" rx="3.5" fill="white" stroke="#D9A62E"/>
<path d="M20.8438 54.1461V38.3936H37.4355L39.2156 40.7264L41.0546 38.3936H101.279V53.0597C101.279 53.0597 99.7037 54.1304 97.8822 54.1461H64.5349L62.5279 51.663V54.1461H55.9511V49.9073C55.9511 49.9073 55.0527 50.499 53.1104 50.499H50.8718V54.1461H40.9139L39.1363 51.7633L37.3314 54.1461H20.8438Z" fill="#016FD0"/>
<path d="M1.4707 26.5206L5.21222 17.752H11.6828L13.8061 22.6638V17.752H21.8496L23.1137 21.3021L24.3391 17.752H60.4461V19.5367C60.4461 19.5367 62.3442 17.752 65.4636 17.752L77.179 17.7931L79.2657 22.6407V17.752H85.9969L87.8495 20.5365V17.752H94.6425V33.5045H87.8495L86.0741 30.7109V33.5045H76.1844L75.1899 31.0213H72.5312L71.5529 33.5045H64.8461C62.1619 33.5045 60.4461 31.7562 60.4461 31.7562V33.5045H50.3338L48.3268 31.0213V33.5045H10.7242L9.73034 31.0213H7.08015L6.09331 33.5045H1.4707V26.5206Z" fill="#016FD0"/>
<path d="M6.53476 19.6943L1.48828 31.4907H4.7738L5.70494 29.1285H11.1181L12.0444 31.4907H15.4023L10.3606 19.6943H6.53476ZM8.40187 22.4397L10.0519 26.5675H6.74704L8.40187 22.4397Z" fill="white"/>
<path d="M15.75 31.4878V19.6914L20.4189 19.7088L23.1345 27.3144L25.7851 19.6914H30.4166V31.4878H27.4833V22.7957L24.3739 31.4878H21.8014L18.6833 22.7957V31.4878H15.75Z" fill="white"/>
<path d="M32.4258 31.4879V19.6914H41.9978V22.3301H35.39V24.3479H41.8434V26.8314H35.39V28.9268H41.9978V31.4879H32.4258Z" fill="white"/>
<path d="M43.6914 19.6943V31.4908H46.6248V27.3H47.8599L51.377 31.4908H54.9617L51.102 27.1448C52.686 27.0104 54.32 25.6435 54.32 23.5214C54.32 21.039 52.382 19.6943 50.2191 19.6943H43.6914ZM46.6248 22.333H49.9779C50.7822 22.333 51.3673 22.9656 51.3673 23.5748C51.3673 24.3585 50.6092 24.8165 50.0213 24.8165H46.6248V22.333Z" fill="white"/>
<path d="M58.5185 31.4879H55.5234V19.6914H58.5185V31.4879Z" fill="white"/>
<path d="M65.619 31.4879H64.9725C61.8445 31.4879 59.9453 29.0103 59.9453 25.6382C59.9453 22.1828 61.8232 19.6914 65.7734 19.6914H69.0156V22.4853H65.6549C64.0513 22.4853 62.9173 23.7435 62.9173 25.6673C62.9173 27.9518 64.214 28.9113 66.0822 28.9113H66.8541L65.619 31.4879Z" fill="white"/>
<path d="M72.0035 19.6943L66.957 31.4907H70.2426L71.1737 29.1285H76.5868L77.5132 31.4907H80.871L75.8294 19.6943H72.0035ZM73.8706 22.4397L75.5206 26.5675H72.2158L73.8706 22.4397Z" fill="white"/>
<path d="M81.2109 31.4879V19.6914H84.9404L89.7022 27.103V19.6914H92.6356V31.4879H89.0268L84.1443 23.8823V31.4879H81.2109Z" fill="white"/>
<path d="M22.8535 52.1295V40.333H32.4255V42.9717H25.8177V44.9895H32.2711V47.473H25.8177V49.5684H32.4255V52.1295H22.8535Z" fill="white"/>
<path d="M69.7559 52.1295V40.333H79.3279V42.9717H72.7201V44.9895H79.1426V47.473H72.7201V49.5684H79.3279V52.1295H69.7559Z" fill="white"/>
<path d="M32.7965 52.1294L37.457 46.304L32.6855 40.333H36.3812L39.2228 44.0242L42.0741 40.333H45.625L40.9162 46.2312L45.5853 52.1294H41.8903L39.1312 48.4964L36.4391 52.1294H32.7965Z" fill="white"/>
<path d="M45.9316 40.334V52.1305H48.9422V48.4053H52.0299C54.6426 48.4053 56.6229 47.0117 56.6229 44.3017C56.6229 42.0567 55.0698 40.334 52.4111 40.334H45.9316ZM48.9422 43.0018H52.194C53.038 43.0018 53.6413 43.5219 53.6413 44.3599C53.6413 45.1472 53.0411 45.7181 52.1843 45.7181H48.9422V43.0018Z" fill="white"/>
<path d="M57.8984 40.333V52.1295H60.8318V47.9386H62.0669L65.584 52.1295H69.1687L65.309 47.7834C66.8931 47.649 68.527 46.2822 68.527 44.1601C68.527 41.6777 66.589 40.333 64.4261 40.333H57.8984ZM60.8318 42.9717H64.1849C64.9892 42.9717 65.5744 43.6043 65.5744 44.2134C65.5744 44.9971 64.8162 45.4552 64.2283 45.4552H60.8318V42.9717Z" fill="white"/>
<path d="M80.685 52.1295V49.5684H86.5555C87.4242 49.5684 87.8003 49.0965 87.8003 48.5789C87.8003 48.083 87.4254 47.5816 86.5555 47.5816H83.9027C81.5967 47.5816 80.3125 46.1692 80.3125 44.0485C80.3125 42.1571 81.4886 40.333 84.9152 40.333H90.6275L89.3924 42.9872H84.452C83.5076 42.9872 83.2169 43.4854 83.2169 43.9612C83.2169 44.4502 83.5762 44.9895 84.2976 44.9895H87.0766C89.6472 44.9895 90.7626 46.4555 90.7626 48.3752C90.7626 50.4391 89.5196 52.1295 86.9367 52.1295H80.685Z" fill="white"/>
<path d="M91.4486 52.1295V49.5684H97.3192C98.1878 49.5684 98.564 49.0965 98.564 48.5789C98.564 48.083 98.189 47.5816 97.3192 47.5816H94.6664C92.3604 47.5816 91.0762 46.1692 91.0762 44.0485C91.0762 42.1571 92.2522 40.333 95.6788 40.333H101.274L100.156 42.9872H95.2157C94.2713 42.9872 93.9806 43.4854 93.9806 43.9612C93.9806 44.4502 94.3398 44.9895 95.0613 44.9895H97.8403C100.411 44.9895 101.526 46.4555 101.526 48.3752C101.526 50.4391 100.283 52.1295 97.7003 52.1295H91.4486Z" fill="white"/>
</g>
</svg>
