<svg width="104" height="71" viewBox="0 0 104 71" fill="none" xmlns="http://www.w3.org/2000/svg">
<rect x="0.5" y="0.5" width="103" height="70" rx="3.5" fill="white" stroke="#D9A62E"/>
<path d="M56.5916 57.687C68.1728 57.7427 78.7435 48.1973 78.7435 36.5854C78.7435 23.8881 68.1728 15.1105 56.5916 15.1152H46.6242C34.905 15.1105 25.2578 23.8905 25.2578 36.5854C25.2578 48.1996 34.905 57.7427 46.6242 57.687H56.5916Z" fill="#0079BE"/>
<path d="M46.6721 16.875C35.9621 16.8786 27.2848 25.5993 27.2812 36.3628C27.2848 47.1252 35.9621 55.8459 46.6721 55.8495C57.3832 55.8459 66.0641 47.1252 66.0653 36.3628C66.0641 25.5993 57.3844 16.8786 46.6721 16.875ZM34.3816 36.3628C34.3793 33.8742 35.1312 31.4428 36.5389 29.3864C37.9467 27.3299 39.9448 25.7442 42.2721 24.8363V47.8882C39.9446 46.981 37.9463 45.3955 36.5384 43.3392C35.1306 41.2828 34.3789 38.8514 34.3816 36.3628ZM51.0708 47.893V24.8351C53.3999 25.7417 55.3997 27.3273 56.8085 29.3844C58.2173 31.4416 58.9693 33.8743 58.9661 36.364C58.9688 38.8537 58.2166 41.2861 56.8079 43.3432C55.3992 45.4002 53.3996 46.9859 51.0708 47.893Z" fill="white"/>
<path d="M56.5916 57.687C68.1728 57.7427 78.7435 48.1973 78.7435 36.5854C78.7435 23.8881 68.1728 15.1105 56.5916 15.1152H46.6242C34.905 15.1105 25.2578 23.8905 25.2578 36.5854C25.2578 48.1996 34.905 57.7427 46.6242 57.687H56.5916Z" fill="#0079BE"/>
<path d="M46.6721 16.875C35.9621 16.8786 27.2848 25.5993 27.2812 36.3628C27.2848 47.1252 35.9621 55.8459 46.6721 55.8495C57.3832 55.8459 66.0641 47.1252 66.0653 36.3628C66.0641 25.5993 57.3844 16.8786 46.6721 16.875ZM34.3816 36.3628C34.3793 33.8742 35.1312 31.4428 36.5389 29.3864C37.9467 27.3299 39.9448 25.7442 42.2721 24.8363V47.8882C39.9446 46.981 37.9463 45.3955 36.5384 43.3392C35.1306 41.2828 34.3789 38.8514 34.3816 36.3628ZM51.0708 47.893V24.8351C53.3999 25.7417 55.3997 27.3273 56.8085 29.3844C58.2173 31.4416 58.9693 33.8743 58.9661 36.364C58.9688 38.8537 58.2166 41.2861 56.8079 43.3432C55.3992 45.4002 53.3996 46.9859 51.0708 47.893Z" fill="white"/>
</svg>
