<svg width="103" height="71" viewBox="0 0 103 71" fill="none" xmlns="http://www.w3.org/2000/svg">
<rect x="0.5" y="0.5" width="102" height="70" rx="3.5" fill="white" stroke="#D9A62E"/>
<path d="M44.8789 71.0007L103 53.9902V67.0007C103 69.2098 101.21 71.0007 99.0004 71.0007H44.8789Z" fill="#FD6020"/>
<path fill-rule="evenodd" clip-rule="evenodd" d="M88.8326 28.4325C92.0302 28.4325 93.7889 29.863 93.7889 32.565C93.9488 34.6312 92.5098 36.3796 90.5913 36.6975L94.908 42.5783H91.5506L87.8734 36.8564H87.5536V42.5783H84.8357V28.4325H88.8326ZM87.5536 34.9495H88.353C90.1117 34.9495 90.911 34.1547 90.911 32.7241C90.911 31.4524 90.1117 30.6576 88.353 30.6576H87.5536V34.9495ZM75.4028 42.5783H83.077V40.1942H78.1207V36.3796H82.9171V33.9954H78.1207V30.8166H83.077V28.4325H75.4028V42.5783ZM67.4088 37.969L63.7316 28.4325H60.8538L66.7693 42.8962H68.2082L74.1238 28.4325H71.2459L67.4088 37.969ZM34.9534 35.5849C34.9534 39.5584 38.151 42.8962 42.148 42.8962C43.427 42.8962 44.5462 42.5783 45.6653 42.1015V38.9226C44.8659 39.8763 43.7468 40.5121 42.4677 40.5121C39.9097 40.5121 37.8312 38.6048 37.8312 36.0617V35.7438C37.6714 33.2007 39.7498 30.9755 42.3078 30.8166C43.5869 30.8166 44.8659 31.4524 45.6653 32.406V29.2272C44.706 28.5914 43.427 28.4325 42.3078 28.4325C38.151 28.1146 34.9534 31.4524 34.9534 35.5849ZM29.9972 33.8365C28.3984 33.2007 27.9187 32.8828 27.9187 32.0881C28.0786 31.1344 28.878 30.3397 29.8373 30.4987C30.6367 30.4987 31.4361 30.9755 32.0756 31.6113L33.5145 29.704C32.3954 28.7503 30.9564 28.1145 29.5175 28.1145C27.2792 27.9556 25.3607 29.704 25.2008 31.9291V32.0881C25.2008 33.9954 26.0002 35.108 28.5583 35.9027C29.1978 36.0616 29.8373 36.3795 30.4768 36.6974C30.9564 37.0153 31.2762 37.4921 31.2762 38.1279C31.2762 39.2405 30.3169 40.1941 29.3577 40.1941H29.1978C27.9187 40.1941 26.7996 39.3994 26.32 38.2868L24.5613 40.0352C25.5206 41.7836 27.4391 42.7372 29.3577 42.7372C31.9157 42.8962 33.9941 40.9889 34.154 38.4458V37.969C33.9941 36.0616 33.1948 35.108 29.9972 33.8365ZM20.7242 42.5783H23.4421V28.4325H20.7242V42.5783ZM8.09375 28.4325H12.0907H12.8901C16.7272 28.5914 19.7649 31.7703 19.605 35.5849C19.605 37.6511 18.6458 39.5584 17.047 40.9889C15.6081 42.1015 13.8494 42.7373 12.0907 42.5783H8.09375V28.4325ZM11.6111 40.1952C12.8901 40.3542 14.329 39.8773 15.2883 39.0825C16.2476 38.1288 16.7272 36.8571 16.7272 35.4264C16.7272 34.1547 16.2476 32.8831 15.2883 31.9293C14.329 31.1345 12.8901 30.6576 11.6111 30.8166H10.8117V40.1952H11.6111Z" fill="black"/>
<path fill-rule="evenodd" clip-rule="evenodd" d="M53.8212 28.1045C49.8243 28.1045 46.4668 31.2833 46.4668 35.4158C46.4668 39.3894 49.6644 42.7272 53.8212 42.8861C57.9781 43.0451 61.1757 39.7073 61.3355 35.5748C61.1757 31.4423 57.9781 28.1045 53.8212 28.1045V28.1045Z" fill="#FD6020"/>
</svg>
