<svg width="104" height="72" viewBox="0 0 104 72" fill="none" xmlns="http://www.w3.org/2000/svg">
<rect x="0.5" y="0.5" width="103" height="70" rx="3.5" fill="white" stroke="#D9A62E"/>
<path d="M66.3167 36.8618C67.843 36.8953 69.378 36.7938 70.8983 36.9146C72.4379 37.2045 72.8089 39.5577 71.4411 40.3283C70.5079 40.8361 69.3992 40.5175 68.3874 40.607H66.3167V36.8618ZM71.7809 32.6228C72.1199 33.8312 70.9661 34.9163 69.8133 34.7499H66.3167C66.3412 33.6102 66.2687 32.3733 66.3522 31.2936C67.7529 31.3334 69.1666 31.2124 70.5592 31.3569C71.1576 31.5087 71.6583 32.0053 71.7809 32.6228ZM80.1958 14.7013C80.2609 17.0092 80.2052 19.439 80.2239 21.7938C80.2196 31.3672 80.233 40.9404 80.2164 50.5143C80.1551 54.1022 77.0056 57.2198 73.4765 57.2914C69.944 57.3059 66.411 57.2936 62.8779 57.2976V42.8246C66.7273 42.8045 70.5787 42.8653 74.4265 42.7942C76.2115 42.6811 78.1667 41.492 78.2498 39.5088C78.4599 37.517 76.5999 36.1393 74.834 35.9217C74.1552 35.9039 74.1751 35.7219 74.834 35.6425C76.5183 35.275 77.8409 33.515 77.3454 31.7524C76.9231 29.8985 74.8936 29.181 73.2055 29.1846C69.7635 29.161 66.3208 29.1813 62.8787 29.1744C62.9009 26.4725 62.8323 23.7676 62.9157 21.0677C63.1884 17.5446 66.4171 14.6391 69.8966 14.7022C73.3301 14.7017 76.7631 14.7017 80.1958 14.7015V14.7013Z" fill="url(#paint0_linear_932_1069)"/>
<path d="M23.9802 21.4332C24.0681 17.851 27.231 14.759 30.7556 14.7067C34.2751 14.6957 37.795 14.7051 41.3145 14.7019C41.3048 26.6872 41.3336 38.6737 41.3 50.6583C41.1644 54.197 38.036 57.2301 34.5499 57.2927C31.0237 57.3057 27.4972 57.2946 23.971 57.2981V42.3372C27.3961 43.1541 30.9879 43.5019 34.4822 42.96C36.5709 42.6207 38.8562 41.5851 39.5633 39.3973C40.0837 37.5259 39.7907 35.5564 39.8682 33.6357V29.1751H33.821C33.7939 32.1252 33.8767 35.0805 33.7773 38.027C33.6143 39.8382 31.8377 40.9889 30.1459 40.9275C28.0476 40.9499 23.8897 39.3922 23.8897 39.3922C23.8793 33.8649 23.9506 26.9427 23.9802 21.4338V21.4332Z" fill="url(#paint1_linear_932_1069)"/>
<path d="M43.5697 30.974C43.2513 31.0421 43.5057 29.8793 43.4243 29.4382C43.446 26.6491 43.379 23.8569 43.4612 21.0698C43.7332 17.5318 46.9867 14.6191 50.4803 14.7019H60.7686C60.759 26.6872 60.7876 38.6737 60.7541 50.6583C60.6184 54.197 57.4898 57.23 54.0035 57.2927C50.4773 57.3062 46.9506 57.2948 43.4241 57.2983V40.9065C45.8326 42.9016 49.1059 43.2121 52.1065 43.2176C54.3685 43.2168 56.6173 42.8647 58.814 42.338V39.335C56.3384 40.5806 53.4283 41.3719 50.684 40.6562C48.7697 40.1751 47.3801 38.3073 47.4111 36.3127C47.1893 34.2385 48.3936 32.0486 50.4125 31.432C52.9191 30.6397 55.6511 31.2456 58.0008 32.2757C58.5041 32.5418 59.0151 32.8719 58.8138 32.0223V29.662C54.8841 28.718 50.7021 28.3707 46.7541 29.3976C45.6113 29.723 44.4979 30.2166 43.5697 30.9742V30.974Z" fill="url(#paint2_linear_932_1069)"/>
<defs>
<linearGradient id="paint0_linear_932_1069" x1="62.7595" y1="35.0887" x2="80.1145" y2="35.0887" gradientUnits="userSpaceOnUse">
<stop stop-color="#58B03A"/>
<stop offset="1" stop-color="#55B330"/>
</linearGradient>
<linearGradient id="paint1_linear_932_1069" x1="23.6019" y1="36.4079" x2="41.0301" y2="36.4079" gradientUnits="userSpaceOnUse">
<stop stop-color="#0F6EB6"/>
<stop offset="1" stop-color="#006DBA"/>
</linearGradient>
<linearGradient id="paint2_linear_932_1069" x1="43.3987" y1="35.502" x2="60.7654" y2="35.502" gradientUnits="userSpaceOnUse">
<stop stop-color="#DE0D3D"/>
<stop offset="1" stop-color="#E30138"/>
</linearGradient>
</defs>
</svg>
