<svg width="104" height="71" viewBox="0 0 104 71" fill="none" xmlns="http://www.w3.org/2000/svg">
<rect x="0.5" y="0.5" width="103" height="70" rx="3.5" fill="white" stroke="#D9A62E"/>
<path fill-rule="evenodd" clip-rule="evenodd" d="M52.743 50.7563C49.2023 53.7983 44.6095 55.6347 39.5908 55.6347C28.3925 55.6347 19.3145 46.4917 19.3145 35.2133C19.3145 23.9349 28.3925 14.792 39.5908 14.792C44.6095 14.792 49.2023 16.6284 52.743 19.6704C56.2837 16.6284 60.8765 14.792 65.8952 14.792C77.0936 14.792 86.1716 23.9349 86.1716 35.2133C86.1716 46.4917 77.0936 55.6347 65.8952 55.6347C60.8765 55.6347 56.2837 53.7983 52.743 50.7563Z" fill="#ED0006"/>
<path fill-rule="evenodd" clip-rule="evenodd" d="M52.7422 50.7563C57.1019 47.0106 59.8663 41.4371 59.8663 35.2133C59.8663 28.9895 57.1019 23.416 52.7422 19.6704C56.2829 16.6284 60.8757 14.792 65.8944 14.792C77.0927 14.792 86.1708 23.9349 86.1708 35.2133C86.1708 46.4917 77.0927 55.6347 65.8944 55.6347C60.8757 55.6347 56.2829 53.7983 52.7422 50.7563Z" fill="#F9A000"/>
<path fill-rule="evenodd" clip-rule="evenodd" d="M52.7432 19.6709C57.1028 23.4165 59.8672 28.99 59.8672 35.2138C59.8672 41.4375 57.1028 47.011 52.7432 50.7566C48.3835 47.011 45.6191 41.4375 45.6191 35.2138C45.6191 28.99 48.3835 23.4165 52.7432 19.6709Z" fill="#FF5E00"/>
</svg>
