<svg width="104" height="71" viewBox="0 0 104 71" fill="none" xmlns="http://www.w3.org/2000/svg">
<rect x="0.5" y="0.5" width="103" height="70" rx="3.5" fill="white" stroke="#D9A62E"/>
<path d="M44.4937 47.5784H38.6133L42.2913 24.9365H48.1714L44.4937 47.5784Z" fill="#00579F"/>
<path d="M65.8095 25.4903C64.6496 25.0322 62.81 24.5264 60.5353 24.5264C54.7282 24.5264 50.6389 27.6094 50.6138 32.0171C50.5656 35.2691 53.5416 37.0754 55.7675 38.1597C58.0425 39.2677 58.8159 39.991 58.8159 40.9786C58.7927 42.4954 56.9775 43.1946 55.2845 43.1946C52.9367 43.1946 51.6788 42.8342 49.7671 41.9903L48.9928 41.6285L48.1699 46.7111C49.5491 47.3367 52.0901 47.8918 54.7282 47.9161C60.8983 47.9161 64.9152 44.8808 64.9628 40.1837C64.9863 37.6062 63.4148 35.6312 60.0269 34.0174C57.9702 32.9814 56.7106 32.2828 56.7106 31.2228C56.7347 30.2592 57.7759 29.2722 60.0976 29.2722C62.0093 29.2238 63.4139 29.6813 64.4779 30.1391L65.0098 30.3796L65.8095 25.4903Z" fill="#00579F"/>
<path d="M73.6272 39.5572C74.1115 38.2565 75.975 33.2222 75.975 33.2222C75.9505 33.2705 76.4583 31.8974 76.7486 31.0545L77.1596 33.0054C77.1596 33.0054 78.2732 38.4252 78.515 39.5572C77.596 39.5572 74.7887 39.5572 73.6272 39.5572ZM80.8859 24.9365H76.3374C74.9347 24.9365 73.8691 25.3457 73.2639 26.8151L64.5293 47.5781H70.6994C70.6994 47.5781 71.7152 44.7836 71.9336 44.1817C72.6105 44.1817 78.6127 44.1817 79.4835 44.1817C79.6523 44.9766 80.1852 47.5781 80.1852 47.5781H85.6298L80.8859 24.9365Z" fill="#00579F"/>
<path d="M33.7018 24.9365L27.9429 40.3761L27.3136 37.2448C26.2489 33.6316 22.9099 29.706 19.1836 27.7541L24.4585 47.5544H30.6769L39.9198 24.9365H33.7018Z" fill="#00579F"/>
<path d="M22.5949 24.9365H13.1339L13.0371 25.3941C20.4173 27.2732 25.305 31.8028 27.3132 37.2472L25.2565 26.84C24.9178 25.3937 23.8773 24.9842 22.5949 24.9365Z" fill="#FAA61A"/>
</svg>
