<svg width="28" height="32" viewBox="0 0 28 32" fill="none" xmlns="http://www.w3.org/2000/svg">
<g clip-path="url(#clip0_1149_1096)">
<path d="M9.5 4H18.5V1.5C18.5 0.671875 19.1688 0 20 0C20.8312 0 21.5 0.671875 21.5 1.5V4H24C26.2062 4 28 5.79063 28 8V28C28 30.2062 26.2062 32 24 32H4C1.79063 32 0 30.2062 0 28V8C0 5.79063 1.79063 4 4 4H6.5V1.5C6.5 0.671875 7.16875 0 8 0C8.83125 0 9.5 0.671875 9.5 1.5V4ZM3 15.5H8V12H3V15.5ZM3 18.5V22.5H8V18.5H3ZM11 18.5V22.5H17V18.5H11ZM20 18.5V22.5H25V18.5H20ZM25 12H20V15.5H25V12ZM25 25.5H20V29H24C24.55 29 25 28.55 25 28V25.5ZM17 25.5H11V29H17V25.5ZM8 25.5H3V28C3 28.55 3.4475 29 4 29H8V25.5ZM17 12H11V15.5H17V12Z" fill="#165E83"/>
</g>
<defs>
<clipPath id="clip0_1149_1096">
<rect width="28" height="32" fill="white"/>
</clipPath>
</defs>
</svg>
