<svg width="28" height="28" viewBox="0 0 28 28" fill="none" xmlns="http://www.w3.org/2000/svg">
<g clip-path="url(#clip0_1159_1734)">
<path d="M5.44141 7.91875L9.77266 12.25L15.0227 17.5L20.0813 22.5586C18.3695 23.7836 16.2695 24.5 14 24.5C8.20312 24.5 3.5 19.7969 3.5 14C3.5 11.7305 4.21641 9.63047 5.44141 7.91875ZM18.2273 15.75L16.4773 14H21V15.75H18.2273ZM19.9773 17.5H21.875C22.3563 17.5 22.75 17.1063 22.75 16.625V13.125C22.75 12.6438 22.3563 12.25 21.875 12.25H14.7273L7.91875 5.44141C9.63047 4.21641 11.7305 3.5 14 3.5C19.7969 3.5 24.5 8.20312 24.5 14C24.5 16.2695 23.7836 18.3695 22.5586 20.0813L19.9773 17.5ZM14 28C21.7328 28 28 21.7328 28 14C28 6.26719 21.7328 0 14 0C6.26719 0 0 6.26719 0 14C0 21.7328 6.26719 28 14 28ZM14.875 5.25C14.3938 5.25 14 5.64375 14 6.125C14 7.57422 15.1758 8.75 16.625 8.75H18.375C18.8563 8.75 19.25 9.14375 19.25 9.625C19.25 10.1062 19.6437 10.5 20.125 10.5C20.6063 10.5 21 10.1062 21 9.625C21 8.17578 19.8242 7 18.375 7H16.625C16.1437 7 15.75 6.60625 15.75 6.125C15.75 5.64375 15.3562 5.25 14.875 5.25ZM12.5508 17.5L7.30078 12.25H6.125C5.64375 12.25 5.25 12.6438 5.25 13.125V16.625C5.25 17.1063 5.64375 17.5 6.125 17.5H12.5508Z" fill="#165E83"/>
</g>
<defs>
<clipPath id="clip0_1159_1734">
<rect width="28" height="28" fill="white"/>
</clipPath>
</defs>
</svg>
