<svg width="32" height="25" viewBox="0 0 32 25" fill="none" xmlns="http://www.w3.org/2000/svg">
<path d="M2.71017 10.0109C6.16077 6.90781 10.8416 5 16.0025 5C21.1634 5 25.8442 6.90781 29.2948 10.0109C29.9349 10.5828 30.9451 10.5641 31.5552 9.96875C32.1653 9.37344 32.1453 8.42188 31.5102 7.85C27.4895 4.22656 22.0236 2 16.0025 2C9.98144 2 4.51549 4.22656 0.489779 7.84531C-0.145332 8.42188 -0.165336 9.36875 0.444771 9.96875C1.05488 10.5688 2.07006 10.5875 2.70517 10.0109H2.71017ZM16.0025 12.5C18.843 12.5 21.4335 13.4891 23.4138 15.125C24.0789 15.6734 25.0891 15.6125 25.6742 14.9938C26.2593 14.375 26.1943 13.4234 25.5342 12.875C22.9937 10.775 19.6531 9.5 16.0025 9.5C12.3519 9.5 9.01127 10.775 6.47583 12.875C5.81071 13.4234 5.7507 14.3703 6.3358 14.9938C6.92091 15.6172 7.93108 15.6734 8.5962 15.125C10.5715 13.4891 13.162 12.5 16.0075 12.5H16.0025ZM19.2031 20C19.2031 18.3453 17.7678 17 16.0025 17C14.2372 17 12.8019 18.3453 12.8019 20C12.8019 21.6547 14.2372 23 16.0025 23C17.7678 23 19.2031 21.6547 19.2031 20Z" fill="#165E83"/>
</svg>
