<?xml version="1.0" encoding="UTF-8"?>
<svg id="__1" data-name="_1" xmlns="http://www.w3.org/2000/svg" viewBox="0 0 100.94 101.31">
  <defs>
    <style>
      .cls-1 {
        fill: #f1c74c;
      }

      .cls-1, .cls-2, .cls-3, .cls-4, .cls-5, .cls-6, .cls-7, .cls-8, .cls-9, .cls-10, .cls-11, .cls-12, .cls-13, .cls-14, .cls-15, .cls-16, .cls-17, .cls-18, .cls-19, .cls-20, .cls-21, .cls-22, .cls-23, .cls-24, .cls-25, .cls-26, .cls-27, .cls-28, .cls-29, .cls-30, .cls-31, .cls-32, .cls-33, .cls-34, .cls-35, .cls-36, .cls-37, .cls-38, .cls-39, .cls-40, .cls-41, .cls-42, .cls-43, .cls-44, .cls-45, .cls-46, .cls-47, .cls-48, .cls-49, .cls-50, .cls-51, .cls-52, .cls-53, .cls-54, .cls-55, .cls-56, .cls-57, .cls-58, .cls-59, .cls-60, .cls-61, .cls-62, .cls-63, .cls-64, .cls-65, .cls-66, .cls-67, .cls-68, .cls-69, .cls-70, .cls-71, .cls-72, .cls-73, .cls-74, .cls-75, .cls-76, .cls-77, .cls-78, .cls-79, .cls-80, .cls-81, .cls-82, .cls-83, .cls-84, .cls-85, .cls-86, .cls-87, .cls-88, .cls-89, .cls-90 {
        fill-rule: evenodd;
      }

      .cls-2 {
        fill: #f4cb35;
      }

      .cls-3 {
        fill: #c69a42;
      }

      .cls-4 {
        fill: #eec24d;
      }

      .cls-5 {
        fill: #edaf2b;
      }

      .cls-6 {
        fill: #f5d960;
      }

      .cls-7 {
        fill: #f3cf57;
      }

      .cls-8 {
        fill: #d4ab55;
      }

      .cls-9 {
        fill: #f5d658;
      }

      .cls-10 {
        fill: #dea641;
      }

      .cls-11 {
        fill: #efbe48;
      }

      .cls-12 {
        fill: #f1c455;
      }

      .cls-13 {
        fill: #eec757;
      }

      .cls-14 {
        fill: #f3d058;
      }

      .cls-15 {
        fill: #eec561;
      }

      .cls-16 {
        fill: #f3a519;
      }

      .cls-17 {
        fill: #f5db5e;
      }

      .cls-18 {
        fill: #e1b85d;
      }

      .cls-19 {
        fill: #f4ce2d;
      }

      .cls-20 {
        fill: #e7b549;
      }

      .cls-21 {
        fill: #edbe57;
      }

      .cls-22 {
        fill: #deb352;
      }

      .cls-23 {
        fill: #f9f8c8;
      }

      .cls-24 {
        fill: #f4d450;
      }

      .cls-25 {
        fill: #f4d883;
      }

      .cls-26 {
        fill: #f3d860;
      }

      .cls-27 {
        fill: #f4c22a;
      }

      .cls-28 {
        fill: #f0c64c;
      }

      .cls-29 {
        fill: #f5e264;
      }

      .cls-30 {
        fill: #f2c646;
      }

      .cls-31 {
        fill: #e5b951;
      }

      .cls-32 {
        fill: #efc75d;
      }

      .cls-33 {
        fill: #f4b81b;
      }

      .cls-34 {
        fill: #e3b966;
      }

      .cls-35 {
        fill: #dfb361;
      }

      .cls-36 {
        fill: #f4d045;
      }

      .cls-37 {
        fill: #f5ec77;
      }

      .cls-38 {
        fill: #f5d75b;
      }

      .cls-39 {
        fill: #f2bf3b;
      }

      .cls-40 {
        fill: #f2c236;
      }

      .cls-41 {
        fill: #f3b220;
      }

      .cls-42 {
        fill: #f1c44c;
      }

      .cls-43 {
        fill: #f4c02f;
      }

      .cls-44 {
        fill: #f3bf2e;
      }

      .cls-45 {
        fill: #eeb133;
      }

      .cls-46 {
        fill: #f5e46c;
      }

      .cls-47 {
        fill: #e59519;
      }

      .cls-48 {
        fill: #e8b342;
      }

      .cls-49 {
        fill: #e8b84a;
      }

      .cls-50 {
        fill: #f5d355;
      }

      .cls-51 {
        fill: #f4d546;
      }

      .cls-52 {
        fill: #e8b649;
      }

      .cls-53 {
        fill: #f4c729;
      }

      .cls-54 {
        fill: #e0ae4a;
      }

      .cls-55 {
        fill: #e8a31e;
      }

      .cls-56 {
        fill: #f5df68;
      }

      .cls-57 {
        fill: #f4d558;
      }

      .cls-58 {
        fill: #dba948;
      }

      .cls-59 {
        fill: #f5df64;
      }

      .cls-60 {
        fill: #f5e86a;
      }

      .cls-61 {
        fill: #f5d757;
      }

      .cls-62 {
        fill: #f3ca47;
      }

      .cls-63 {
        fill: #eda624;
      }

      .cls-64 {
        fill: #f8eaa3;
      }

      .cls-65 {
        fill: #f5d251;
      }

      .cls-66 {
        fill: #f4bc1e;
      }

      .cls-67 {
        fill: #f2c23e;
      }

      .cls-68 {
        fill: #ecba42;
      }

      .cls-69 {
        fill: #f3c943;
      }

      .cls-70 {
        fill: #dfa535;
      }

      .cls-71 {
        fill: #ebbb54;
      }

      .cls-72 {
        fill: #f3d24f;
      }

      .cls-73 {
        fill: #f5de58;
      }

      .cls-74 {
        fill: #daa942;
      }

      .cls-75 {
        fill: #efbd45;
      }

      .cls-76 {
        fill: #eebf42;
      }

      .cls-77 {
        fill: #f4cc46;
      }

      .cls-78 {
        fill: #c98e22;
      }

      .cls-79 {
        fill: #f2d76b;
      }

      .cls-80 {
        fill: #f5ec73;
      }

      .cls-81 {
        fill: #f5e164;
      }

      .cls-82 {
        fill: #dc9f31;
      }

      .cls-83 {
        fill: #f4cc44;
      }

      .cls-84 {
        fill: #f5df6a;
      }

      .cls-85 {
        fill: #f4cc3d;
      }

      .cls-86 {
        fill: #ecc25b;
      }

      .cls-87 {
        fill: #f1bc31;
      }

      .cls-88 {
        fill: #f2bf56;
      }

      .cls-89 {
        fill: #d8a64f;
      }

      .cls-90 {
        fill: #e7c069;
      }
    </style>
  </defs>
  <path class="cls-81" d="M78.89,25.36c.06,.85,.99,.88,1.37,1.42,.09,.16,.08,.31,0,.47-1.86,1.31-2.5,3.29-2.93,5.37-.45,.62-1.12,.78-1.81,.93-1.45,.1-2.86-.16-4.27-.49-.67-.15-.89-.64-1-1.22-.25-1.28-.39-2.58-.3-3.86,.08-1.09-.16-1.99-.83-2.81-.08-.23-.09-.46-.02-.7,.54-.75-.03-1.28-.36-1.86-.2-.42-.27-.9-.43-1.33-.73-1.58-1.16-3.34-2.64-4.48-.16-.17-.3-.33-.47-.5-1.12-.8-2.1-1.74-2.89-2.88-.1-.14-.17-.29-.22-.45-.2-1.06,.27-1.55,1.32-1.6,.66-.03,1.31-.23,1.97-.02,.53,.21,1.01,.5,1.5,.79,.65,.4,1.07,1.6,2.15,.59,.15-.14,.57,.03,.78,.21,1.53,1.34,3.53,2.02,4.88,3.6,1.38,1.77,1.58,3.86,1.65,5.99,.01,.34,.01,.31,.39,.28,.75-.06,1.07,.51,1.45,1.02,.35,.46,.27,1.1,.69,1.52Z"/>
  <path class="cls-24" d="M62.42,13.34c1.07-.35,.65,.86,1.2,1.16,.71,.38,1.28,1.03,1.9,1.57-1.27,.75-2.01-.59-3.05-.77-.61-.54-1.34-.57-2.09-.46-.84,.11-1.66,.43-2.44-.25-.32-.29-.62,.03-.92,.17-1,.46-1.99,.52-3.13,.41-1.26-.13-2.43,.62-3.49,1.36-.14,.08-.3,.12-.45,.17-.41,.06-.74-.11-1.1-.3-.86-.46-1.86,.12-2.15,1.2-.17,.63,0,1.37-.63,1.84-.18,.13-.44,.18-.55,.35-.74,1.15-1.69,1.68-3.06,1.22-.85-.59-1.08-1.33-.79-2.36,.38-1.34,.48-2.68-.83-3.67-.44-.67,.16-1.11,.35-1.65,1.91-1.08,3.82-2.18,5.74-3.24,.55-.3,1.13-.55,1.79-.44,3.68-.94,7.43-.41,11.11-.27,1.72,.06,3.59,.51,5.32,1.1,.66,.22,.74,.62,.35,1.16-.84,.09-1.68,.16-2.53,.27-1.06,.13-.35,.97-.56,1.44-.58,.27-1.23-.32-1.79,.15,.61,.05,1.2,.02,1.79-.15Z"/>
  <path class="cls-9" d="M40.82,14.72c2.05,.65,1.89,2.46,1.38,3.74-.45,1.12,.06,1.66,.34,2.44,.79,1.97,.23,3.02-1.74,3.37-.98,.17-.86,1.25-1.43,1.82,.52-.1,.53-1.07,1.2-.67,.57,.34,.33,.89,.21,1.39-.52,2.32-2.02,3.86-4.02,4.99-1.03,.24-2.06,.35-3.06-.15-.67-1.03-1.68-1.23-2.79-1.05-.61,.1-1.18,.39-1.78-.02-.09-.14-.12-.29-.09-.45,.1-.27,.21-.58,.43-.72,1.33-.89,2.51-1.81,2.18-3.71-.06-.35,.66-.78,.22-1.19-.43-.39-.94-.04-1.43,.13-1.29,.45-1.97-.07-2.16-1.59,.4-.48,1.07-.35,1.53-.7,.26,.11,.52,.22,.79,.32,2.18,.85,2.35,.8,2.97-1.35,.8-2.8,2.95-4.37,5.17-5.89,.8,.12,1.2-.98,2.06-.7Z"/>
  <path class="cls-6" d="M13.08,61.37c-.13-.34-.26-.67-.39-1.01-.41-1.36-1.86-1.7-2.66-2.69-.23-1.07-.2-2.03,.94-2.49-2.02-.22-3.34-1.52-3.49-3.66-.05-.8-.48-1.53-.37-2.34,.08-.58,.28-1.15,.94-1.28,.61-.12,.78,.32,.8,.82,0,.13-.04,.22-.02,.28,.3-1.86,2.19,.5,2.64-1,.09-.31,.32-.46,.66-.33,.34,.14,.77,.5,.66,.69-.61,1.04,.68,1.26,.68,2.3,.1-1.05-1-1.68-.14-2.46,.48-.44,1.03-1.02,1.76-.33,.56,1.91,.63,1.96,2.15,1.37,.65,.03,.98,.51,1.32,.95,1.54,2.03,3.22,3.9,5.53,5.09,.05,.44-1.16,.36-.38,1.27,.53,.61,.74,1.89-.9,1.9-.81-.35-.71-1.76-1.98-1.65-.49,.04-.94-.17-1.43,.25-.6,.5-1.65,.7-2.12,.38-1.45-.96-1.52,.68-2.25,1.01-.48,.22,0,.23,.13,.24,.84,.11,1.09,.7,.84,1.36-.31,.8-.59,1.8-1.82,1.62-.29-.38-.81,.04-1.11-.31Z"/>
  <path class="cls-36" d="M49.39,87.75c-.89-.1-1.64,.32-2.41,.68-.87,0-1.57,.54-2.36,.8-1.61,.46-3.17,.75-4.5-.73-.45-.5-1.34-.19-1.84-.74-.2-.43-.17-.81,.21-1.13,.42-.39,1.79,.48,1.35-1.03-.09-.2-.2-.39-.29-.59-.28-.85-.92-.23-1.39-.32-.26,0-.52-.03-.78-.09-1.12-.24-2.25-.07-3.37-.13-.61-.03-1.25,.05-1.77-.4,.11-1.15,1.05-.88,1.68-.87,2.4,.03,4.77-.1,7.08-.84,1.63,.43,2.79-.92,4.27-1.17,1.27-.22,2.14-2.18,3.84-.98,.1,.07,.21,.05,.27-.06,1.3-2.2,1.58,.15,2.32,.52,.95,1.34,1.73,2.79,3.01,3.88,.43,.37,.74,.86,.59,1.5-1.94,.23-3.08-1.06-4.41-2.2,1.62,1.72,2.72,3.56,1.39,5.91-.75,.44-.94-.3-1.34-.63-.53-.44-.66-1.34-1.55-1.37Z"/>
  <path class="cls-16" d="M23.93,89.51c-1.6-1.08-3.37-1.86-5.09-2.72-2.03-1.02-3.57-2.59-4.78-4.49-.21-.86-.87-1.63-.57-2.59,1.39-.54,2.72-1.13,3.48-2.57,.22-.42,.85-.5,1.33-.65,1.29-.27,2.5-.1,3.56,.75,.13,.13,.2,.28,.21,.46-.16,.48-.42,.91-.79,1.26-1.08-.31-1.92,1.29-2.62,.73,.64,.19,1.6,1.05,2.61,1.55,2.04,1,2.15,2.55,2.1,4.35,0,.23-.04,.45-.05,.51,.75,.82,2.85-.26,2.37,2.01-.46,.43-.31,1.19-.85,1.58-.33,.1-.63-.03-.92-.18Z"/>
  <path class="cls-68" d="M65.51,11.64c-.78-1.2-2.02-1.31-3.26-1.34-.19,0-.38,.22-.57,.34-1-1.73-2.69-.37-3.94-.89-1.32-.56-2.61,.27-3.89-.06-1.71-.44-3.41,.42-5.11-.04,1.62-.71,3.27-1.11,5.09-.96,2.31,.2,4.67-.01,6.96,.33,5.59,.83,10.26,3.58,14.33,7.42,0,.59-.28,.57-.68,.34-1.57-1.15-3.14-2.31-4.72-3.45-.22-.16-.62-.35-.76-.26-1.85,1.16-2.27-1.06-3.45-1.42Z"/>
  <path class="cls-63" d="M44.59,88.8c.59-.29,1.18-.59,1.78-.86,.5-.23,.54,.16,.61,.49-1.48,2.39-4.12,2.66-6.45,3.49-2.94,1.44-6.02,.86-9.04,.43-1.61-.23-3.23-.59-4.8-1.08l.02,.02c-.37-.46-1.39-.4-1.12-1.38,.71-.64,1.4-1.12,2.25-.14,.61,.71,1.6,.4,2.39,.59,2.43,.59,4.91,1.12,7.45,.77,.33,0,.67-.03,1.02,.11-.3-.43-1.22-.88-.63-1.3,.68-.48,1.54-.99,2.59-.66,1.34,.44,2.73,.67,3.9-.48Z"/>
  <path class="cls-54" d="M10.3,57.58c1.28,.47,2.1,1.52,2.95,2.48,.33,.37-.38,.15-.55,.3-4.56-2.87-7.29-7.01-8.53-12.22-.7-2.92-1.09-5.83-.3-8.78,.68-2.5,1.74-4.8,3.46-6.77,.32,0,.41,.23,.47,.48-.02,.91-.82,1.43-1.1,2.22-1.26,2.65-2.24,5.37-2.12,8.37,.02,.57,.02,1.14,.24,1.68,.37,1.2,.52,2.45,.86,3.65,.16,.6,.26,1.24,.9,1.57,.16,.08,.38,.19,.37,.33-.18,2.89,2.38,4.39,3.36,6.69Z"/>
  <path class="cls-52" d="M49.39,87.75c-.12-.31-.32-.65,.12-.85,.33-.15,.44,.11,.58,.37,.52,.97,1.24,1.81,2.04,2.55,.12,0,.28-.03,.33,.04,1.83,2.56,4.73,2.77,7.43,3.46,.84,.21,1.75,.36,2.52,.07,1.67-.64,3.31-.49,4.99-.2,.57,.1,1.13-.05,1.68-.19,.52-.11,1.02-.26,1.47-.56,.14-.06,.29-.1,.44-.11,.48,.04,.84,.33,1.26,.53,.25,.16,.58,.28,.46,.69-2.67,1.19-5.53,.8-8.32,.97-1.98,.12-3.98,.09-5.96-.06-3.35-.25-5.77-2.15-7.7-4.76-.47-.64-.89-1.32-1.33-1.97Z"/>
  <path class="cls-28" d="M92.59,72.34c.11,3.33-1.63,5.99-3.16,8.74-.98,1.75-2.14,3.27-3.7,4.6-1.16,.99-1.68,2.68-3.19,3.42-.29,.14-.61,.26-.92,.38-.28-.26-.29-.58-.19-.91,.13-.31,.36-.53,.63-.73,.45-.31,.84-.68,1.2-1.09,.66-1.23,1.79-2.05,2.69-3.05,1.32-1.47,1.54-3.36,2.21-5.08,.2-.51,.34-1.31,1-1.23,1.2,.14,.71-.56,.77-1.12,.17-1.65,.41-3.31,1.97-4.34,.31,0-.12,1.22,.68,.41Z"/>
  <path class="cls-69" d="M74.44,16.77c.28,0,.53-.06,.68-.34,3.11,2.19,3.8,5.41,3.77,8.92-.31,.09-.47,.28-.64-.31-.22-.77-.43-1.74-1.47-2-.5,.54,.32,.93,.05,1.47-.13-.09-.31-.14-.34-.25-.24-.75-.69-1.52-.63-2.25,.16-1.96-.47-3.63-1.43-5.25Z"/>
  <path class="cls-13" d="M88.88,30.82c2.84,2.44,6.13,4.49,8,7.83,.87,1.54,1.05,3.47,1.55,5.23-.11,.12-.25,.2-.42,.24-1.08,.02-1.43-.57-1.58-1.58-.46-3.13-1.79-5.73-4.71-7.32-.92-.5-1.32-1.62-2.63-1.83-.52-.08-.85-1.6-.64-2.61,.15-.09,.3-.08,.43,.04Z"/>
  <path class="cls-54" d="M13.71,79.56c.12,.91,.24,1.82,.35,2.73-3.13-5.3-3.93-10.9-2.18-16.84,.4-1.36,1.09-2.64,1.19-4.09,.34,.1,.67-.41,1,0,.28,1.58-.82,2.8-1.1,4.24-.46,1.71-.95,3.42-.85,5.23,0,.17,0,.35,0,.53,.1,2.26,.69,4.43,1.07,6.64,.06,.14,.11,.3,.16,.45,.11,.36,.34,.7,.35,1.1Z"/>
  <path class="cls-12" d="M29.83,22.34c.1,1.43-.84,.57-1.36,.6-1.96,.82-3.89,.41-5.78-.27-.37-.14-.7-.34-1.12-.26-1.24-.29-1.83,1.2-3.01,1.08-.32-.1-.61-.25-.76-.57,3.85-3.34,7.93-2.07,12.02-.59Z"/>
  <path class="cls-20" d="M17.81,22.93c.27,.04,.54,.06,.7,.34-.65,1.37-2.18,1.74-3.12,2.79-.22,.24-.71,.33-.8,.62-.94,2.98-4.35,3.47-5.89,5.85-.24,.36-.59,.74-1.14,.38-.08-.11-.16-.22-.24-.33,1.82-2.86,4.4-5.02,6.86-7.26,1.07-.97,1.99-2.24,3.62-2.4Z"/>
  <path class="cls-32" d="M98.39,52.08c.41,1.92-.55,3.65-1.3,5.17-1.14,2.33-2.8,4.46-5.16,5.83-.2-.19-.27-.42-.26-.69,.07-.47,.33-.85,.67-1.15,2.05-1.78,3.46-3.92,4.33-6.54,.43-1.3,.25-2.57,.56-3.81,.14-.55-.2-1.58,1.01-1.4,.19,.86-.2,1.74,.14,2.59Z"/>
  <path class="cls-72" d="M91.92,62.38v.7h0c-.84,.93-.54,1.83,.07,2.72,.59,.31,.66,.83,.55,1.41-.25,1.42,.37,2.92-.43,4.28-.35,.41-.64,.17-.77-.16-.47-1.26-1.28-2.49-.24-3.98-1.3,.64-1.85,.38-1.57-.73,.28-1.1,.05-2.3,.65-3.32,.45-.53,.89-1.09,1.72-.93Z"/>
  <path class="cls-49" d="M81.63,88.47v1.01c-2.47,2.48-5.65,3.37-8.92,4.09-.16-.26-.41-.3-.68-.31-.09-.47,.27-.58,.57-.73,1.19-.54,2.41-.93,3.72-1.1,1.61-.21,2.56-1.57,3.84-2.37,.42-.26,.66-.82,1.27-.72,.07,.04,.14,.09,.21,.14Z"/>
  <path class="cls-15" d="M88.88,30.82c-.13,0-.27,.02-.41,.03-.61,.72-1.19,.35-1.72-.09-.69-.56-1.43-1.04-2.26-1.36-1.4-.8-3.03-1.18-4.23-2.34v-.28c3.19,.66,6.26,1.61,8.62,4.04Z"/>
  <path class="cls-10" d="M26.69,91.27c2.11-.03,4.08,.8,6.15,1.05,2.62,.32,5.16,.31,7.69-.4-1.03,1.2-2.46,.96-3.78,1-3.46,.09-6.85-.24-10.06-1.65Z"/>
  <path class="cls-4" d="M98.39,52.08c-.59-.85-.16-1.81-.3-2.71-.54-1.83-1.2-3.65-.01-5.49h.35c.31,2.16,1.05,4.31,.11,6.52-.21,.5-.11,1.12-.16,1.68Z"/>
  <path class="cls-45" d="M91.9,71.65c.41-1.45,.12-3,.65-4.44,.54,1.7,.24,3.41,.04,5.12-.56,.34-.16,1.05-.55,1.57-.76-.67,.11-1.33-.14-1.92-.09-.07-.13-.15-.09-.22,.03-.07,.06-.11,.09-.11Z"/>
  <path class="cls-22" d="M40.82,14.72c-.69,.25-1.1,1.27-2.06,.7,.82-.7,1.64-1.39,2.45-2.09,.34,.6-.31,.91-.39,1.38Z"/>
  <path class="cls-10" d="M25.72,89.83c-.11,.78,.8,.87,.99,1.45-1.1-.32-1.99-.97-2.78-1.77,.38,0,.76-.02,1.14-.03,.34-.13,.53,.05,.65,.35Z"/>
  <path class="cls-32" d="M92,65.8c-.94-.88-1.2-1.78-.07-2.72-.41,.92-.19,1.82,.07,2.72Z"/>
  <path class="cls-37" d="M80.26,27.05c1.61,.43,3,1.31,4.46,2.07,.61,1.24,.21,2.56,.2,3.83,0,.7-.68,.98-1.38,.94-1.02-.31-2.06-.59-2.98-1.16-.3-.63-.43-1.41-1.42-1.41-.78,0-.84,.62-1.1,1.1-.25,.26-.52,.43-.86,.12-.48-1.93,1.07-3.23,1.57-4.86,.1-.33,.99-.42,1.5-.62Z"/>
  <path class="cls-90" d="M80.62,32.54c.91,.35,1.82,.7,2.73,1.04,3.91,.52,5.39,3.46,6.42,6.68,1.36,4.26,1.32,8.65,.42,12.99-.58,2.81-1.98,5.19-4.81,6.39-.92,.38-1.7,1.14-2.79,1.09-.38-.02-.75-.1-1-.43,.86-.42,1.72-.87,2.6-1.24,3.31-1.4,4.96-4.25,5.22-7.47,.33-4.15,.63-8.4-1.12-12.47-1.91-4.43-7.42-7.1-11.96-5.61-1.41,.46-2.86,.65-4.31,.07,1.12-.41,2.31-.15,3.45-.36,.58-.23,1.15-.47,1.73-.7,.28,.01,.52-.04,.67-.31,1.01-.73,1.91-.37,2.76,.32Z"/>
  <path class="cls-71" d="M75.46,33.23c-1.09,.68-2.31,.18-3.45,.36-1.42,.23-1.99-.3-2.16-1.81-.25-2.26-.79-4.49-.54-6.79,1.09,.63,1.25,1.51,1.12,2.74-.14,1.36-.06,2.83,.3,4.15,.33,1.25,1.75,1.31,2.75,1.2,.72-.07,1.32,.09,1.97,.15Z"/>
  <path class="cls-31" d="M64.71,16.48c-4.97-1.86-9.8-.66-14.62,.65-.22-.23-.21-.46-.02-.7h0c3.64-1.65,7.52-1.66,11.4-1.7,.35,0,.68,.1,.96,.32,1.22-.22,1.88,1.2,3.09,1.03,.1,.12,.21,.24,.31,.35-.36,.33-.74,.19-1.12,.05Z"/>
  <path class="cls-18" d="M64.71,16.48c.37-.01,.74-.03,1.12-.05,1.7,1.14,2.19,2.98,2.77,4.77-.54-.09-.65-.56-.86-.96-.78-1.45-1.59-2.87-3.04-3.76Z"/>
  <path class="cls-71" d="M69.3,24.34c-.33-.55-.39-1.14-.25-1.76,.84,.84,.94,1.56,.25,1.76Z"/>
  <path class="cls-67" d="M43.25,23.7c-1.02,2.19-1.57,4.57-3.17,6.53-.91,1.12-1.79,1.43-3.05,1.24-.39-.9,.6-.92,.9-1.08,1.95-1.05,2.07-2.99,2.77-4.69-.52-.17-.51,.05-.58,.19-.3,.67-.8,1.64-1.45,1.23-.69-.42,.36-.96,.59-1.47,.21-.46,.34-.97,.6-1.4,.16-.27,.46-.56,.75-.64,1.92-.55,1.93-.53,1.94-2.71,1.01,0,1.99,0,2.43-1.21,.13-.35,.56-.52,.99-.5,.43,.52-.03,.75-.34,1.03-.23,.34-.45,.68-.67,1.02-.63,.78-1.19,1.61-1.7,2.46Z"/>
  <path class="cls-30" d="M45.62,20.22c.11-.34,.22-.69,.34-1.03,.62-.72-.03-1.72,.77-2.54,1.19-1.23,2.21-.62,3.35-.21,0,.23,0,.47,.02,.7-1.71,.71-2.83,2.27-4.47,3.08Z"/>
  <path class="cls-30" d="M62.44,15.05c-4.2-.27-8.31,.27-12.36,1.38,.67-1.08,2.2-.83,2.91-1.91,.17-.25,.66-.21,.96-.01,1.24,.8,2.28,.43,3.25-.5,.15-.14,.56-.28,.57-.26,1.02,1.88,2.6,.24,3.87,.6,.43,.13,.74,.22,.81,.7Z"/>
  <path class="cls-81" d="M62.42,13.34c-.54,.61-1.29,.93-1.98,.57-.47-.25,.06-.88-.03-1.41,.76,.32,1.39,.58,2.01,.84h0Z"/>
  <path class="cls-38" d="M18.29,38.13c-.1,.1-.21,.2-.31,.3-1.09,.61-.88,2.01-1.69,2.79-1.64,.32-1.33,1.38-.93,2.48-.03,.16-.09,.31-.17,.45-.59,.88-1.23,.69-1.79,.01-.79-.94-1.32-2.02-1.09-3.29,.19-1.01-.04-1.89-.61-2.77-.31,.52-.03,.87,.24,1.2,.39,.47,.36,.93-.01,1.38-.34,.41-.73,.73-1.32,.51-.38-.15-.88,0-1.15-.27-.69-.66-1.23-.59-1.83,.1-.25,.29-.51,.06-.68-.2-.98-1.89-.23-3.91-.44-5.86-.03-.88,1.05-1.18,1.04-2.04,1.1-.58,1.61-1.77,2.6-2.47,.76-.54,1.08-1.75,2.4-1.48,.28,.06,.92-.38,.93-.62,.13-2.71,2.65-3.13,4.2-4.47,.25-.22,.54-.41,.82-.61,.64,.04,1-.4,1.36-.81,.54-.62,1.11-.59,1.75-.2,.35,.52,.51,1.2,.11,1.6-1.32,1.31-.85,3.27-1.69,4.24,.46-1.07,1.17-1.3,2.22-.38-.71-.61-1.36-1.24-1.2-2.27,.08-.52,.42-1.38,.69-1.23,.96,.55,1.87-.23,2.77,.11,.55,.21,.7,.55,.42,1.07-.33,.6-.75,1.15-1.09,1.98,2.62-.61,3.68,1.58,5.31,2.78,0,.12,0,.22,0,.34-.11,.36-.41,.65-.73,.57-1.09-.27-2.05,.1-3.07,.38-.78,.22-1.41-.16-1.51-1.08,.13-.64,1.17-.18,1.2-1.09-.72-.03-.91,.53-1.2,.95-.43,.67,.79,1.27,.14,1.87-.91,.85-1.72,1.98-2.85,2.38-.71,.26-.87,.43-.93,1.07-.06,.66-.44,1.15-1.04,1.47-.44,.24-.93,.48-.88,1.12Z"/>
  <path class="cls-56" d="M29.15,30.16c-.76-.02-1.23-.86-2.06-.71-.2,.04-.42-.05-.51-.33-.47-1.44-1.83-1.83-3.07-.78-.46-1.54,.76-2.39,1.46-3.88-.69,.64-1.75-.93-1.82,.89,0,.24-.37-.03-.57-.06-.44-.05,.06-1.64-.87-.63-.6,.64-.56,1.75,.23,2.28,.7,.46,.75,.92,.58,1.56-.05,.19-.28,.41-.45,.45-.38,.07-.4-.26-.47-.54-.08-.33,.51-1.06-.44-.89-.51,.09-.91,.4-.95,1.04-.03,.47,.23,1.03-.36,1.43-.49-.4-.45-1.04-.29-1.38,.73-1.48,.16-3.43,1.67-4.59,.65-.5-.09-1.23,.35-1.74,.06-.49,.41-.89,.73-.39,.9,1.41,2.48,.54,3.62,1.2,.27,.15,1.24-.38,1.91-.53,.41-.09,.46,.18,.6,.4,.38,1.11,.62,2.29,2.2,.99,.38-.3,1.27,.02,1.99,.07-.23,.77-.07,1.57-.87,2.08-.33,.21-.07,.62,.18,.87,1.08,1.16,.22,1.81-.76,1.75-1.26-.08-1.15,1.33-2.06,1.45Z"/>
  <path class="cls-75" d="M23.99,30.16c.19,1.11,1,1.32,1.72,.77,.88-.66,1.58-.82,2.51-.18,.16,.12,.62-.17,.93-.27,1.38-.04,2.73-.82,4.14-.02,.4,.23,.8,.24,.31,.74-2.95-.07-5.84,.51-8.7,1.12-1.72,.37-2.79,1.93-3.84,3.19-.83,1.01-1.79,1.8-2.76,2.61-.6-.62-.04-.96,.38-1.16,.96-.48,1.25-1.22,1.23-2.23,0-.79,.07-.82,.78-.45,.32,.17,.42-.06,.55-.19,.69-.67,1.38-1.34,2.2-1.88,.34-.23,.99-.65-.14-.89-.3-.07,.27-.75,.37-1.17,.11-.12,.22-.11,.33,.01Z"/>
  <path class="cls-84" d="M11.7,71.28c0-.1-.01-.2-.01-.31,.39-1.82,1.2-3.56,.99-5.49,.25-1.44,.94-2.74,1.4-4.11,1.2,.08,1.4-.88,1.65-1.68,.15-.44-.19-.74-.71-.65-.45,.08-1.07,.61-1.21-.25-.09-.6,.65-.49,1.01-.71,.19-.12,.42-.15,.64-.23,.01-.46-1-.74-.46-1.03,.54-.28,1.51-.22,2.04,.1,.57,.34,.57,.69,.88-.2,.29-.83,.9,1.02,1.13,.17,.42-1.48,1.12-.39,1.73-.45,1.52-.17,1.71,.76,1.85,1.85-.05,.06-.1,.12-.16,.18-.99,.56-1.96,.47-2.94-.1,.47,.64,1.12,.82,1.82,.89,.65,.07,1.24,.25,1.51,.93,.05,.15,.08,.31,.08,.48-.18,1.21-1,.94-1.93,.75,1.24,.79,1.78,1.77,1.11,3.07-.26,.49,.04,.86,.02,1.29-.48,1.51-.61,3.05-.46,4.62,.06,.67-.05,1.34-.36,1.96-.33,.73-.57,1.47-.41,2.3,.31,1.6-.4,2.36-1.84,1.6-.95-.51-1.93-.38-2.52-.18-1.72,.58-2.56-.02-3.16-1.5-.07-.19-.33-.29-.49-.46-.54-.89-.42-2.06-1.21-2.83Z"/>
  <path class="cls-50" d="M7.2,40.78c.38-.32,.75-.65,1.13-.96,.43-.36,.8-.48,.93,.27,.21,1.22,1.29,.48,1.92,.75,.44,.19,.76-.84,.25-1.27-.93-.8-.24-1.57,.06-2.29,.13-.33,.7-.34,.71,.13,.02,1.21,.98,2.23,.52,3.54-.39,1.13,.41,2.04,.92,2.96,.46,.81,.97,.53,1.44-.04,.81,1.25,.53,2.57,.22,3.89-.07,.08-.14,.15-.22,.22-1.76,.08-2.07,.58-1.33,2.02,.18,.36,1.11,.72,.37,1.15-.79,.44-.74-.55-1-.96-.09-.14-.11-.32-.17-.49-.49,.01-.06,.65-.48,.69-.58-.75,.84-1.93-.69-2.58,.17,.67,.08,1.17-.56,1.51-.76,.4-.64-.38-.93-.59-1.22-.83-1,.8-1.63,.96-.02-.11-.04-.22-.08-.33-.14-.42,.31-1.24-.49-1.17-.65,.06-.83,1-.62,1.38,.48,.88,.4,1.75,.42,2.64,.01,.53,.09,.94,.79,.7,.12-.04,.36,.04,.43,.14q1.16,1.66,2.43,1.94c-1.14,.6-1.39,1.51-1.24,2.57-1.56-1.19-2.37-3-3.57-4.48-.31-.38-.26-.88-.16-1.32,.1-.44,.41-.84-.44-.83-.55,0-.58-.59-.67-1.05-.31-1.44-.65-2.87-.98-4.31,.16-.99-.04-1.98,.07-2.99,.24-2.13,.53-2.39,2.65-1.81Z"/>
  <path class="cls-42" d="M22.64,60.67c0-.11,0-.22,0-.33,.29-.69-.64-1.37-.01-2.06h0c1.35-.46,1.33-1.32-.05-2.58,.39-.36,1.04,.05,1.38-.45,1.32,.37,1.72,1.01,1.29,2.49-1.24,4.19-2.43,8.39-2.93,12.75-.16,1.44,.2,2.84,.32,4.25,.18,.74,.51,1.88-.24,2.06-1.08,.25-.91-1.03-1.06-1.72-.19-.89-.97-1.72-.43-2.73,.55-.89,.47-1.91,.3-2.81-.3-1.5,.21-2.75,.74-4.05,.41-1.11,.51-2.3,.86-3.42,.15-.48,.36-.99-.18-1.4Z"/>
  <path class="cls-50" d="M16.12,43.19c-.3,2.15,.26,4.15,1.06,6.12-.15,.71-.6,1.2-1.27,.8-.72-.43-1.6-1.02-.82-2.13h0c.65-1.06,.18-2.22,.35-3.32,.08-.53-.32-1.33,.67-1.47Z"/>
  <path class="cls-61" d="M69.29,93.27c-.86,.36-1.66,.39-2.65,.27-1.09-.13-2.32-.56-3.57,.13-1.07,.59-2.4,.46-3.63,.03-.85-.3-1.66-.59-2.67-.54-1.72,.1-2.82-1.26-3.92-2.4-.27-.28-.48-.61-.72-.92,.07-.72-.15-1.47,.28-2.16,.39-.62,.11-1.1-.37-1.61-.8-.85-1.7-1.73-1.3-3.58,1.16,2.08,2.9,2.73,4.49,3.57,.35-.18,.65,0,.95,.15,1.15,.55,2.32,1.06,3.58,1.34,.52,.12,1.14,.13,1.35,.79q-.52,1.76,.95,4.3c.11,.03,.27,.03,.31-.07,.77-1.8,2.26-1.44,3.62-1.12,.88,.2,1.13-.17,1.34-.91-.46,.16-.95,.42-1.38,.22-.85-.4-1.61-.18-2.46,.04-1.71,.43-2.75-.62-2.44-2.34,1.24-1.5,3.04-.85,4.52-.86,.46,0,.81,.07,1.23-.22,.69-.48,1.51-.38,2.29-.39,1.02-.01,1.53,.52,1.72,1.5,.27,1.36,.97,2.68,.19,4.09-.11,0-.23,.01-.34,.01-.75-.6-.54-1.89-1.79-2.25-.49-.14,.07-1,.25-1.51-.91,1.65-.84,3.34,.18,4.43Z"/>
  <path class="cls-53" d="M25.72,89.83c-.22-.12-.44-.23-.66-.35-.4-.57-.41-1.05,.31-1.36,1.28-.16,2.49-.42,3.32-1.56,.38-.53,.77-.23,1.08,.18,.35,.46,.83,.38,1.23,.15,.51-.31,.14-.68-.04-1.01-.29-.53,0-.85,.41-1.12,2.08-.61,4.21-.41,6.33-.41,.23,.01,.46,.02,.69,.03,0,1.74-1.4,1.75-2.65,1.98,.79,.74,1.75,.67,2.14-.15,.4-.85,.82-1.51,1.91-1.18,.11,.12,.22,.24,.33,.35,.08,.99-.87,.94-1.37,1.35-.4,.25-.32,.66-.33,1.04,.42,.53,.28,1.05-.27,1.25-1.64,.59-1.34,1.4-.37,2.36,.02,.02-.03,.11-.04,.16-1.94,.07-3.84,.22-5.78-.46-.75-.28-1.81-.21-2.73-.35-.27-.04-.55-.1-.81-.19-.88-.29-1.61-1.15-2.69-.71Z"/>
  <path class="cls-40" d="M41.48,82.63c2.2-1.43,4.25-3.04,5.89-5.13,.58-.81,1-1.72,2.36-1.41,1.35,.3,2.54,.58,2.55,2.29-1.56,.42-.31,1.77-.83,2.53-.06,0-.11-.02-.17-.03-.8-.04-.24-1.4-1.09-1.23-.9,.19-.13,1.26-.83,1.83-.31-.88-.91-1.56-1.87-1.34-.97,.23,.16,1.12-.36,1.6-.76,.25-.34-1.35-1.22-.84-.45,.27-.23,.81-.06,1.6-1.07-1.07-1.79-.7-2.58-.14-.5,.36-1.07,1-1.79,.28Z"/>
  <path class="cls-47" d="M37.71,84.34c-2.16,.23-4.33,.45-6.49,.68-.98,.45-1.82,.11-2.65-.42-1.55-.44-2.48-1.93-4.02-2.41-.27-.08-.42-.39-.49-.67-.31-1.3-1.22-1.98-2.4-2.41-.15-.06-.28-.14-.39-.26-.02-.54,.04-1.02,.74-1.05,1.24,.02,2.32,.26,3,1.52,.61,1.12,1.63,1.97,2.46,2.95,1.38,1.17,2.82,2.18,4.78,1.7,1.81,.32,3.68-.41,5.45,.37Z"/>
  <path class="cls-2" d="M37.73,91.53c-.14-.17-.28-.34-.43-.51-.28-.34-1.18,.46-1.07-.54,.08-.68,.34-1.39,1.08-1.58,.65-.17,1.22-.28,1.11-1.13,1.06-.04,1.92,.06,2.77,1.04,.87,1.02,2.25,.18,3.4-.01-.37,1.18-1.47,1.33-2.3,1.12-.67-.17-1.71,.83-2.06-.51-.43,.91-1.21,.69-2.01,.45,.11,.9,.95,.92,1.32,1.67h-1.8Z"/>
  <path class="cls-5" d="M51.45,80.9c-.57-.71-.02-1.82-.98-2.33,.65-.69,1.13,.03,1.64-.05,.15,.08,.19,.21,.13,.36-.16,1.47,.84,2.47,1.56,3.53,.69,1,1.57,1.88,2.1,3,.13,.33,.79,.65,.02,1.01-.23-.12-.46-.24-.69-.37-.43-1.47-2.03-2-2.7-3.37-.28-.57-.61-1.25-1.07-1.79Z"/>
  <path class="cls-2" d="M39.79,85.02c-.64,.31-1.33,.45-1.57,1.34-.36,1.34-1.77,1.6-2.84,.68-.31-.26-.42-.51-.33-.87,.1-.43,.46-.53,.79-.43,1.33,.39,1.99-.38,2.55-1.38,.72-.33,1.63-1.07,1.4,.65Z"/>
  <path class="cls-2" d="M38.75,86.73c.26-.66,.96-.86,1.37-1.35,.61,.54,.36,1.14,0,1.63-.58,.77-.85-.48-1.37-.27Z"/>
  <path class="cls-33" d="M21.27,78.86c.11,0,.23,0,.34,0,1.26,.55,2.49,1.11,2.51,2.8,0,.37,.34,.62,.64,.73,1.4,.54,2.51,1.67,4.05,1.94,.68,.67,1.62,.4,2.4,.69-.03,.16-.14,.44-.09,.47,.77,.48,1.25,1.25,.37,1.78-.73,.44-1.9,.6-2.46-.93,.41,1.84-1.4,1.05-1.64,1.67-.7,1.81-1.39-.32-2.02,.1,.73-1.66-1.04-1.22-1.41-1.28-.94-.16-1.07-.5-1-1.32,.06-.78,.12-1.58-.2-2.37-.24-.57-.27-1.21-1.2-1.1-.62,.08-.94-.58-1.24-1.04-.27-.4-.53-.87-1.03-.76-1.78,.41-1.28-1.07-1.67-1.94,.86,.87,1.62,1.62,2.52,.1,.21-.35,.64,.55,1.15,.44Z"/>
  <path class="cls-17" d="M20.92,72.34c.27,1.47,1.17,2.74,1.12,4.76,.8-1.04,.49-1.75,.61-2.36,.37,.95,.45,2.02,1.28,2.76-.66,.41-1.32,.25-1.97,0-1.21-.46-2.44-.87-3.77-.68-1.34,.29-2.32,1.31-3.6,1.76-.51,.18-.93,.73-1.55,.31,0-.12-.01-.23-.02-.35,.13-1.1,.49-2.18-.56-3.14-.34-.31-.45-1.24,.58-1.33,.62,.04,1.28-.05,1.25,.94-.04,1.28,.94,1.11,1.56,.78,.63-.33,1.05-.92,1.58,.03,1.02-.97,1.75,.48,2.71,.31,.69-.12,1.06-.59,.67-1-1.01-1.05-.05-1.87,.12-2.78Z"/>
  <path class="cls-1" d="M13.04,78.87c1.71-.7,3.18-2,5.15-2.06-.64,.39-1.18,.74-1.58,1.53-.52,1.02-1.54,1.73-2.89,1.23-.22-.23-.45-.47-.68-.7Z"/>
  <path class="cls-88" d="M21.96,77.49c.66-.01,1.32-.28,1.97,0,1.27,1.52,2.56,3.04,3.54,4.79-1.2-.7-2.13-1.66-2.77-2.9-.57-1.1-1.87-.93-2.7-1.57-.03-.1-.05-.2-.05-.32Z"/>
  <path class="cls-77" d="M7.2,40.78c-.31,.11-.59,.34-.97,.2-1.1-.42-1.34,.25-1.26,1.1,.08,1-.45,2,.03,3,.16,.34-.24,.43-.52,.5-.93-3.05-.09-5.92,1.03-8.71,.26-.65,.34-1.46,1.02-1.92,.31,.84,1.65,1.58,.15,2.59-.39,.27,.02,.86,.23,1.24,.36,.63,.29,1.31,.3,1.99Z"/>
  <path class="cls-59" d="M71,92.57c.06-1.55-.5-3.01-.72-4.51-.12-.84-.82-.56-1.33-.64-.09-.5,.14-.55,.19-.52-.39-.14-1.28,.6-1.93-.18,1.33-.6,2.75-.1,4.11-.31,1.28-.36,2.59-.68,3.72-1.46,.96-.58,1.41-1.74,2.5-2.17,.61-.13,1.19,.69,1.87-.05,.39-.42,.79,.07,1.13,.37,1.05,.91,1.4,2.28,2.23,3.35,.47,.59-.14,1.15-.48,1.66-.23,.12-.46,.24-.68,.36h0c-.25-.25-.52-.21-.77-.04-1.03,.69-1.36,.04-1.58-.95-.07,1.85-1.99,4.11-3.7,4.19-1.17,.06-2.05,.51-2.88,1.24-.22,.12-.46,.23-.69,.35-.34-.23-.68-.46-1.02-.69Z"/>
  <path class="cls-59" d="M69.29,93.27c-1.09,.07-1.49-.2-1.23-1.49,.22-1.1,.09-2.26,.53-3.37,.23-.58,.57-.74,1.03-.53,.48,.22,.29,.63,.07,1.01-.43,.73-.28,.63,.3,1.3,.55,.61,.61,1.55,.67,2.4-.12,.91-.83,.62-1.37,.68Z"/>
  <path class="cls-59" d="M82.67,60.34c1,.14,1.55-.8,2.4-1.01,.17,.07,.36,.2,.33,.34-.11,.57-.5,1.17,.65,1,.46-.07,.62,.76,1.12,.98,.48-.28,.37-1.51,1.24-.98,.71,.43,2.17,.22,1.87,1.78-.06,.32,.04,.68,.26,.97-.25,1.38-.51,2.76-.76,4.18,.52,0,.63-.19,.72-.4,.13-.33-.06-.96,.54-.85,.52,.1,.72,.76,.46,1.1-1.21,1.56,.11,2.82,.4,4.2,0,.11,0,.22,0,.33-.68,1.51-1.92,2.83-1.45,4.72,.26,1.05,.07,1.2-1.02,.95-.51-.11-.55,.21-.65,.53-.28,.89-.81,1.67-.82,2.67,0,1.42-1.1,2.42-1.9,3.37-.83,.98-1.7,2.02-2.72,2.86-1.27-1.25-2.2-2.63-1.68-4.34-.14-.31-.22-.39-.34-.38-.6,.03-1.36,.5-1.71-.19-.31-.62,.26-1.22,.75-1.58,.93-.68,1.28-1.81,1.32-2.69,.07-1.7,.41-3.22,1.42-4.61,.07-.18-.34-.29-.17-.15,.05,.04,.03,.07,0,.13-.82,1.09-1.01-.22-1.51-.39-.16-.4-.15-.81,0-1.22,1.1-1.48,1.16-2.95,.08-4.51-.42-.61-1.05-1.36-.58-2.19,.59-1.06,.63-1.58-.67-2.26-1.04-.54,.1-1.27,.62-1.8,1.01-.34,1.96-.61,1.59,1.14,.12-.61-.17-1.19,.21-1.71Z"/>
  <path class="cls-57" d="M81.64,73.01q.98,.22,1.17-1.03c.62,.84,.85,2.16,.23,2.57-.53,.36-.6,.71-.63,1.21-.14,2.4-.65,4.66-2.81,6.43,2.48-1.24,2.77-.12,2.37,1.74-.3,1.39,1.17,1.99,1.38,3.14-.23,.46-.57,.81-1.04,1.02,.33-.9,.43-1.65-.53-2.39-.72-.56-.73-1.76-1.54-2.4-.24-.19-.5-.78-.71-.35-.74,1.58-1.35-.17-2.01,0-.21-.96,.64-1.39,1.09-1.95,.9-1.14,1.66-2.38,2.48-3.58,.06-1.07,0-2.13,.03-3.2,.15-.42,.1-.92,.51-1.23Z"/>
  <path class="cls-46" d="M90.54,63.42c-.64-.05-.94-.52-.88-1.03,.05-.39,.59-.84-.1-1.05-.74-.23-.06,.89-1.08,.77-.31-.09,.3-.99-.26-1.24-.37,.01-.35,.28-.4,.49-.11,.4,.22,1.03-.36,1.17-.56,.14-.64-.52-.9-.86-.82-1.05-.81-1.05-1.34,.11-1.43-.73,.1-1.66-.15-2.46,3.52-1.56,4.76-4.7,5.06-8.12,.3-3.43,.43-6.92-.59-10.32-1.01-3.35-2.72-6.06-6.18-7.3,.97,0,1.62-.31,1.16-1.44-.43-1.06,.38-2,.2-3.02,1.04,.2,1.88,.81,2.56,1.5,.46,.46,.8,.19,1.19,.22,.01,.38,.46,.6,.48,.86,.05,1.03,.68,1.22,1.44,1.78,1.45,1.09,3.19,2,4.27,3.56,1.23,1.78,2.22,3.66,2.21,5.92-.01,.79,.68,.77,1.21,.91-.39,1.84,.23,3.66,.01,5.49-.48,.8-.67,1.7-.48,2.56,.42,1.83-.66,3.37-1.21,4.85-.57,1.54-1.65,3.18-3.22,4.23-.5,.33-.84,.91-1.25,1.36-.47,.35-.92,.69-1.38,1.04Z"/>
  <path class="cls-1" d="M13.03,74.05c-.54,.41-.67,1.16-.2,1.41,1.8,.99,.92,2,.18,3.05-.82-2.34-1.16-4.78-1.32-7.24,1.68,.33,1.07,1.76,1.33,2.77Z"/>
  <path class="cls-1" d="M12.68,65.48c.39,1.07,.24,2.2,.33,3.3-1.46,.12-.65,1.6-1.32,2.19-.13-1.91,.26-3.74,.99-5.49Z"/>
  <path class="cls-65" d="M72.71,92.91c.58-1.01,1.24-1.84,2.62-1.46,.79,.22,1.14-.55,1.62-.93,.2-.16,.28-.59,.64-.66,1.26-.23,1.49-.98,1.19-2.12-.09-.33,.13-.75,.21-1.12,1.09,.23,.81,1.1,.88,1.72,.63,.24,1.24-.65,1.77,.11-.89,.1-1.26,.95-1.76,1.45-2.01,2.02-4.83,1.9-7.17,2.99Z"/>
  <path class="cls-73" d="M67.23,64.52c3.82,.77,5.06,2.36,3.5,5.17-.51-.03-1.13-.25-1.49-.06-.41,.23-1.59-.03-1.04,1.28,.43,1.02-.29,1.88-1.31,2.25-1.45,.53-5.55,.54-6.92-1.09,.17,.24,.62,.53,.31,.91-.42,.52-.94,.03-1.41-.05-.76-.32-1.18-.94-1.44-1.7,.08-1.76,.07-3.57,2.08-4.42,.61-.27,.65-.91,.47-1.32-.81-1.83-1.15-3.96-3.08-5.12-.76,0-1.1,.7-1.67,1.01-.55-.17-1.05-.42-1.68-.79,.85,1.23,1.42,2.49,.63,3.74-.69,1.09-1.18,2.52-2.83,2.66-.52,.04-.9,.47-1.36,.68-.5,.22-1.03,.27-1.37-.25-.31-.46-.06-.85,.29-1.2,.17-.16-.03,.05,.12-.11q1.68-1.74,.55-4.14c-.31-.65-.34-1.33-.23-2,.14-.87,.01-1.69-.28-2.51-.12-.7-.16-1.4,.45-1.93,.94,.15,1.78,.33,2.82-.11,2.01-.85,2.69-2.29,1.52-4.2-.38-.62-.26-1.05,.2-1.51,.82-.84,1.15-1.47-.15-2.37-1.57-1.09-1.56-4.7-.2-6.08,.42-.42,.89-.8,1.5-.41,.78,.49,.16,1-.07,1.45-1.04,2.13-1.04,2.12-.81,3.11-.39-1.65,1.04-2.5,1.65-3.7,.41-.81,.76,.22,1.17,.32,.69,.55,1.35,.93,1.79-.24l.02-.03c.05,0,.15-.03,.16-.01,.8,1.51,2.25,2.43,3.39,3.63-.55,.58-.75,1.35-1.13,2.02-.19,.34-.31,.8-.83,.67-.38-.1-.56-.49-.48-.81,.28-1.19-.72-1.67-1.22-2.44-.42-.64-1.27,.75-1.5-.47,.05,.56,.41,.95,.45,1.44,.01,.18-.28,.35,0,.55,1.77,1.3,2.06,2.21,1.42,4.33-.1,.33-.28,.63-.39,.95-.11,.31-.36,.68-.04,.93,.3,.24,.61-.17,.94-.21,.98,.49,.98,1.48,.98,2.31,0,1.22,.13,2.25,1.41,2.77,.24,.85-.7,1.81,.23,2.6,.6,.68,.78,1.56,1.15,2.36-.52,1.74,.03,2.55,1.76,2.31,.94-.13,.73,.96,1.41,1,.36-.29,.11-.9,.55-1.16Z"/>
  <path class="cls-51" d="M56.96,42.15c-.61,.38-.21-.59-.64-.46-.23,1.68-2.15,2.66-1.78,4.62-1.93-1.74-.16-3.02,.31-4.46,.09-.26,.77-.34,.25-.76-.33-.27-.61-.07-.9,.17-1.42,1.22-1.47,4.86,.23,6.07,.92,.65,1.14,1.85,.2,2.54-.82,.6-1.15,.77-.04,1.46,.86,.53-.16,3.17-.87,3.79-.9,.8-2.5,.4-2.8,1.96-.65-.47-.44-1.37-1.19-1.56-.18-.17-.24-.38-.26-.62-.32-.64,.19-1.02,.54-1.52-1.09,.27-2.18,.24-3.11,.8-.27,.16-.61,.16-.78-.08-.76-1.06-1.3-.34-1.87,.2-.24,.08-.47,.07-.7-.04-.47-1.14-1.19-2.31,.84-2.73,.49-.1,.42-.71,.48-1.15,.15-1.33,.81-1.34,1.6-.53,.7,.71,1.34,.92,2.13,.2,.52-.15,.99-.66,1.59-.27,.39,.25,.82,.99,1.19,.21,.3-.64,.57-1.47-.21-2.18-1.11-1.02-2.63-1.01-3.85-1.72-.34-.19-.78-.18-1.09-.47-.5-1.34,.52-2.49,.46-3.83-.06-1.22-.59,.08-.7-.25-1-1.16-.24-2.58-.48-3.87-.11-.62,.71-.31,1.02-.06,1.1,.88,2.62,1.32,3.07,2.9,.13,.45,.55,.54,.98,.47,1.22,.03,2.33-1.59,2.12-3.33-.13-1.1,.08-1.76,1.29-1.83,.62-.16,1.2-.14,1.82,.11,.91,.37,1.89,.37,2.4-.57,.55-1,.78-2.18,.05-3.2-.43-.6-.96-1.11-1.13-1.85-.22-.48-.76-.45-1.13-.71-.48-.33-1.07-.68-.87-1.32,.24-.78,1.19-.77,1.6-.54,.83,.48,2.02,.58,2.37,1.74,.09,.28,.3,.48,.53,.65,.68,.9,.8,2.11,1.66,2.94,.43,.4,.28,.94-.07,1.39-.48,.64-.92,1.33-1.65,1.69-1.65,.81-2.54,2.02-2.27,3.92-.52,.62,.07,1.42-.35,2.05Z"/>
  <path class="cls-60" d="M62.08,57.59c-.54-.56-1.14-.54-1.94,.13,.3-1.99,.44-3.7-.44-5.28-.59-1.54-.09-3.08,1.4-3.52,1.1-.32,1.29-.74,.98-1.75-.16-.51-.07-1.12,.35-1.58-.12-.18-.25-.52-.38-.52-2.12-.1-2.38-1.89-3.06-3.31,.78-.93,1.62-1.81,2.27-2.86,.65-1.07,3.82-1.06,4.82-.13,.85,.8,.64,2.27-.49,3.4-.33,.31-.69,.65-.83,1.06-.19,.57-.45,1.19,0,1.78,.45,.59,1.02,.64,1.67,.4,.38-.14,.77-.2,1.15-.02,.64,.46,1.03,1.06,.87,1.88-.08,.4-.13,.39-2.45,.67,.25,.8,1.7,.9,1.25,2.12-.13,.1-.26,.23-.4,.28-3.27,1.15-3.45,1.61-1.67,4.52,.31,.33,.77,.5,1.01,.91,.24,.41,.07,.77-.22,1.07-.29,.29-.63,.25-.92,0-.98-.84-1.99-1.66-2.87-2.61-.4-.43-.17-.84-.09-1.28,.08-.51,.57-1-.07-1.89-.25,2.26-1.15,4.25,1.07,5.74,.57,.38,.5,.84,.02,1.26-.69,.6-.83,0-1.03-.48Z"/>
  <path class="cls-27" d="M38.77,40.81c1.71,1.68,3.78,2.62,6.13,3.03,.13-.11,.28-.11,.43-.02,1.1,1.24,.24,2.41-.33,3.41-.55,.96-1.8,.5-2.42,.2-1.5-.72-2.81-.65-4.2,.09-.36,.03-.64-.07-.82-.4-.15-.22,.04-.74-.21-.71-1.27,.19-1.75-.77-2.39-1.5-.2-.16-.22-.42-.35-.64,.01,.37,.29,.56,.5,.79-.29,1.66-.63,1.64-1.95,.96-1.47-.76-1.67-2.4-2.85-3.31-.43-.33-.19-1.12,.19-1.14,1.53-.07,1.26-1.54,1.93-2.25,.23-.26,.49-.42,.85-.42,.17,.03,.37,.24,.43,.22,2.04-.9,3.28,.23,4.4,1.7,.23,.31,.45,.25,.67,0Z"/>
  <path class="cls-80" d="M67.24,50.06c-.38-1.14-1.67-1.45-2.35-2.59,1.16-.06,2.22-.11,3.3-.17,.11-.68-.43-1.13-.62-1.71,1.27-1.15,2.77-2.02,4.03-3.2,.52-.49,1.37-.4,2.1,0,.85,.47,1.7,.94,2.53,1.45,.62,.96,.51,2.06,.62,3.12-.11,.08-.21,.07-.31,0-.04-.03-.11,0-.16,0,1.38,1.75,.62,3.03-.91,4.13-.27,.35-.65,.27-1.02,.28-.53-.62-1.09-1.12-2.01-.91-1.36,.31-2.59,.13-3.53-1.02-.75-.31-1.05,.57-1.67,.62Z"/>
  <path class="cls-83" d="M34.65,62.38c.26-.37,.64-.29,1.01-.31,.57,.27,1.23-.08,1.8,.22,.83,.34,1.93,.28,2.03,1.63,.04,.63,.78,.52,1.24,.68,1.42,.51,1.59,1.32,.48,2.29-.08,.06-.25,.08-.25,.19,.19,2.62-2.05,2.66-3.62,3.43-2.44,.36-4.31-2.02-4.69-3.63-.28-1.21-.1-2.37,1.03-3.2,.45-.33,.98-.63,.97-1.31Z"/>
  <path class="cls-83" d="M49.73,54.85c0,.23,0,.46,0,.69-.42,.64-.35,1.35-.33,2.06,0,.08,0,.16-.01,.24-.01,.98-.22,1.82-1.41,1.94-.15,.23-.49-.75-.5,.07,0,.48-.22,.78-.61,.92-.49,.17-.63,.49-.82,.95-.74,1.86-1.28,2.03-3.08,1.14-.25-.12-.47-.31-.76-.36-.02,.09,.02,.18,.09,.29,.52,.79,1.08,1.85,.07,2.35-.81,.4-1.4-.64-1.7-1.45-.2-.54-.57-.98-.9-1.43-.42-.99,.77-1.4,.8-2.23,.87-1.38,1.77-2.73,3.29-3.49,.08,.03,.14,.06,.21,.09,1.14-.18,2.33-.21,3.2-1.11,.7-.73,1.51-.91,2.45-.65Z"/>
  <path class="cls-14" d="M59.63,30.16c-.91-.61-1.48-1.61-2.67-1.96-.62-.19-1.26-.2-1.43,.12-.28,.52,.39,.85,.8,1.06,.45,.23,1.22-.12,1.29,.76-.66,.66-1.49,.38-2.25,.38-.97,0-1.44,.4-1.51,1.4-.07,1.09,.07,2.13,.45,3.13,.18,.48,.17,.87-.12,1.26-1.1-.08-1.7,.27-1.17,1.46,.72,1.6-.98,2.39-1.24,3.7-.15,.71-.88-.25-1.38-.33-.81-.16-.99-.63-.68-1.34,1.44,1.28,1.79,1.19,2.38-.72,.51-1.67,.7-3.27-.57-4.81-1.36-1.66-1.39-4.11-.3-5.36,1.45-1.67,4.11-2.24,6.06-1.26,1.07,.54,2.08,1.18,2.35,2.51Z"/>
  <path class="cls-87" d="M45.27,50.38c-.05,.9,.24,2.07-1.41,1.61-.53-.14-.44,.29-.39,.64,.06,.5,.06,1.01,.1,1.52-1.12,.8-2.31,1.36-3.72,1.03-.46-.1-.45,.32-.67,.46-1.19,.74-2.66,.76-3.71-.04-1.13-.87-.95-2.19-.87-3.3,.08-1.08,1.05-1.18,1.99-.8,1.76,.69,3.43,.38,5.02-.55,.51-.3,1.27-.35,1.21-1.22,.43-.51,.89,.13,1.32-.04,.66-.23,.84,.32,1.14,.69Z"/>
  <path class="cls-39" d="M39.78,62.05c.85,.19,1.17,.88,1.34,1.59,.16,.69,.54,1.06,1.12,1.34,1.06-1.47-1.13-2.09-.79-3.51,.74,.43,1.37,.83,2.05,1.17,1.39,.72,2,.37,2.16-1.24,.04-.44-.16-1.03,.55-1.01,2.12,.04,.75-.62,.25-1.13-.12-.12-.19-.27-.45-.64,.87,.32,1.66,.22,2.04,1.03,.18,.24,.17,.47-.02,.69-1.57,1.54-2.65,3.5-4.36,4.93-.8,.67-.45,1.83-.81,2.71-.32,.75-.23,1.76-1.36,1.97-1.36,.22-2.67,1.2-4.12,.3,.28-.42,.56-1.01,1.14-.88,1.93,.41,1.84-.96,1.95-2.14,.07-.76,.04-.75,.82-.67,.38,.04,.52-.22,.44-.52-.17-.66-.6-1.1-1.31-1.15-.21-.01-.46,.16-.66,.12-1.13-.23-.75-1.16-.85-1.88-.13-1.01-1.72,.95-1.52-.75,.75-.45,1.55-.56,2.39-.35Z"/>
  <path class="cls-37" d="M62.08,57.59c.34,.38,.65,.56,1.01,0,.26-.38,.04-.52-.25-.59-1.76-.45-1.62-1.99-1.66-3.23-.02-.68,.21-1.44,.22-2.18,0-.41,.05-.83,.47-1.02,.35-.16,.43,.16,.59,.41,.22,.34,.8,.32,.43,1.12-.72,1.56-.18,2.61,1.37,3.44,.1,.06,.2,.09,.32,.12,.52,.14,.41,1.53,1.21,.83,.83-.71-.78-.92-.62-1.63,1.36,.87,2.77,1.67,4.05,2.65,.67,.51,.69,1.35,.06,2.06-.64-.88-1.25-1.55-1.77,.09-.2,.63-.93,.23-1.29,.58-1.02,.04-1.51-.89-2.3-1.28-1.27-.61-1.8-.43-1.54,1.05-1.37-.66-.86-1.54-.29-2.43Z"/>
  <path class="cls-7" d="M49.4,57.6s.12,.07,.12,.11c.1,2.36,.84,4.58,1.55,6.8,.18,.56,.14,1.38-.83,1.28-.64-.07-.6,.6-1.02,.72-.4,.12-.6,.39-.37,.75,.21,.34,.75,.37,.9,.14,.6-.88,1.56-.73,2.39-1.01,1.7-.58,2.44-3.57,1.37-5.16-.37-.55-1-.97-.29-2.04-.06,1.63,1.86,.88,2,2.18-.72,1.46-.18,3.22-1.33,4.64-1.25,1.54-4.28,2.71-5.82,2.09-1.49-.6-1.71-1.7-.68-2.54,1.81-1.48,1.25-3.31,1.29-5.1,0-.17,.02-.34,.04-.51,.27-.77,.52-1.55,.65-2.36h.01Z"/>
  <path class="cls-76" d="M58.99,72.67c.37,.08,.73,.16,1.12,.24,0-.53-.45-.51-.68-.72-.32-.29-.61-.64-.24-1.01,.42-.41,.68-.02,.94,.32,.41,.54,.9,1.42,1.46,1.34,1.78-.24,3.55,.77,5.26-.02,1.66-.76,1-2.16,.64-3.41,.49-.31,.68,.91,1.01,.16,.76-1.72,1.47,.02,2.19-.03,.01,0,.03,.1,.04,.16-.99,2.88-3.32,4.49-6.28,4.29-1.83-.13-3.77,.67-5.46-.65-.19-.22-.22-.44,0-.66Z"/>
  <path class="cls-57" d="M80.94,61.03c-.17,.69-2,1.9,.65,1.7,.7-.06,.53,1.26,.15,1.64-1.14,1.18-.24,2.02,.35,2.86,.95,1.35,.79,3.53-.43,4.44-.39-.27-.4-.68-.36-1.07,.33-3.08-1.44-5.23-3.31-7.31-.47-.52-1.34-.81-1.01-1.75,.31-.88,1.13-1.04,1.91-1.19,.17-.03,.34-.04,.51-.08,.17-.08,.35-.07,.51,.02,.11,.03,.23,.07,.34,.1,.23,.21,.55,.32,.68,.63Z"/>
  <path class="cls-70" d="M41.6,50.95c.14,.16,.64,.22,.04,.5-1.65,.77-3.32,.87-5.06,.33-1.42-.44-1.94,.08-1.59,1.54,.66,2.79,1.58,2.95,4.4,1.81,1.24-.5,2.74-.83,4.18-.98,.23,0,.45,0,.68,0,.65-.32,1.3-.65,1.79,.23-.54,.91-1.48-.07-2.12,.45-1.95,.56-3.88,1.21-5.85,1.66-1.26,.3-2.73,.07-3.45-.94-.76-1.07-.58-2.61-.44-3.93,.09-.88,1.24-.77,1.73-.56,1.87,.8,3.6,.28,5.37-.22,.09-.02,.21,.07,.32,.1Z"/>
  <path class="cls-44" d="M49.72,39.8c.07,.53,.29,.99,.68,1.34-.24,1.06-.84,.53-.92,.07-.35-2.17-2.59-2.27-3.78-3.6,.97,1.27-.07,2.59,.25,3.85-.3,.32-.69,.39-1.1,.35-1.38-.89-1.7-2.06-1.03-3.76,.36-.89,2.1-1.8,3.07-1.61,1.06,.21,1.16,1.33,1.82,1.92,.34,.47,.68,.95,1.01,1.43Z"/>
  <path class="cls-78" d="M33.26,39.05c-.22,.13-.44,.26-.66,.39-.25,.31-.54,.58-.86,.83-2.03,1.58-2.13,1.87-1.34,3.73,.98,2.29,2.05,2.96,4.27,2.64,.47-.07,.91-.08,1.31,.21,.27,.41-.08,.59-.3,.82-3.28,.76-5.32-.23-6.33-2.83-1.33-3.41-.03-5.18,3.92-6.48,.18,.23,.21,.46-.01,.69Z"/>
  <path class="cls-21" d="M67.22,86.71h2.39c.01,.53-.6,.34-.66,.71-.9,0-1.84-.15-2.49,.72-.1,.13-.28,.53-.5,.26-1.14-1.44-2.62,.36-3.86-.42-.18-.12-.69,.3-1.05,.48h0c-1.66-.82-3.63-.82-5.13-2.04,.39-.35-.14-.67-.02-1.01,2.58,1.47,5.21,2.47,8.27,1.55,.96-.29,2.03-.18,3.06-.25Z"/>
  <path class="cls-86" d="M79.57,60.41c-2.68,1.15-2.79,1.25-.91,3.14,2.28,2.3,3.26,4.95,3,8.12-.01,.45-.02,.9-.03,1.35-.02,.37,.05,.77-.3,1.05-.17-.06-.29-.17-.34-.34-.02-1.13-.08-2.26-.05-3.39,.07-3.23-1.64-5.45-4.03-7.31-.76-.73-.93-1.61-.28-2.42,.85-1.06,1.93-.51,2.93-.19Z"/>
  <path class="cls-58" d="M37.38,70.26c1.41,.39,2.73-.54,4.12-.3-2.2,1.42-5.7,1.32-7.54-.28-2.33-2.03-2.83-5.43,.69-7.3,1.01,.47,.22,1-.1,1.18-1.52,.87-2.12,2.1-1.39,3.68,.8,1.75,2.01,3.13,4.22,3.02Z"/>
  <path class="cls-25" d="M76.22,43.84c-.88,.05-1.45-.56-2.11-.98-.97-.63-2.05-.77-2.75,.16-.99,1.34-2.44,1.85-3.79,2.57-.23,0-.47-.05-.68,.02-1.03,.29-2.17,.57-2.55-.77-.3-1.07,.05-2.13,1.23-2.66-.23,.92-1.51,1.86-.43,2.74,.9,.73,2.04,.03,3.02-.4,.73-.32,1.4-.69,1.92-1.35,1.29-1.6,2.18-1.78,3.97-.85,.78,.41,1.81,.48,2.17,1.51Z"/>
  <path class="cls-74" d="M48.7,38.37c-.3-.02-.54-.12-.69-.4-.41-.73-.64-1.49-1.87-1.13-1.12,.33-2.07,.63-2.17,1.92-.07,1-.46,2.2,.96,2.7,.66,.64,1.05,1.37,.81,2.32-.12,.16-.28,.19-.45,.11-.13-.02-.26-.05-.39-.07,.05-.66-.12-1.23-.63-1.67-1.57-1.35-1.33-3.03-.72-4.67,.51-1.33,2.02-1.32,3.02-1.37,1.09-.05,1.97,.97,2.14,2.25Z"/>
  <path class="cls-34" d="M56.9,60.37c.89-.03,1.32,.63,1.68,1.25,.59,1.03,1.16,2.08,1.58,3.18,.36,.95,.57,1.89-.83,2.49-1.71,.73-1.31,2.57-1.69,4,.19,.34,.25,.69,0,1.03-1.08-2.16-.64-4.2,1.29-5.54,.75-.52,.95-1.05,.6-1.86-.69-1.62-1.44-3.21-2.62-4.54Z"/>
  <path class="cls-79" d="M68.91,49.44c.07-.31-.06-.69,.37-.97,.57,.33,.22,1.23,.82,1.5,.22,.09,.34,1.15,.89,0,.43-.91,3.15,.23,3.46,1.41-2.78,.67-4.42,.09-5.54-1.93Z"/>
  <path class="cls-62" d="M67.23,64.52v2.11c-.38-.79-1.74-.19-1.46-1.53-.54,.04-1.09,.17-1.62,.12-1.24-.11-1.07-1.27-1.35-2.04-.16-.45-.2-1.13,.71-.8,.94,1.23,1.89,2.44,3.72,2.14Z"/>
  <path class="cls-55" d="M33.26,39.05c0-.23,0-.46,.01-.69,.12-.07,.24-.13,.37-.2,.77-.12,1.54-.21,2.3,.05,1.61,.13,2.14,1.45,2.83,2.59,.07,.37,.14,.75,.23,1.22-.96-.01-1.28-.85-1.41-1.29-.45-1.51-2.11-.9-2.84-1.82-.14-.18-.35,.12-.44,.34-.67,1.63-.66-.32-1.04-.2Z"/>
  <path class="cls-11" d="M16.12,43.19c-.68,1.04-.19,2.2-.34,3.3-.08,.56,.28,1.33-.68,1.49,0-1.37-.01-2.75-.01-4.11h.01c.28-.94,.2-2.01,1.01-2.74,.33-.81,.74-1.6,.99-2.43,.2-.67,.54-.36,.89-.27-.41,1.67-1.08,3.24-1.86,4.76Z"/>
  <path class="cls-82" d="M35.69,47.67c.11-.24,.22-.47,.33-.71,.57-.93,1.14-.46,1.71,0,.15,.28,.4,.34,.68,.34,.74-.03,1.5-.07,2.17,.35,1.12,.47,2.33,.75,3.31,1.52,.28,.23,.17,.61,.34,.89-.09,.49-.28,.85-.64,.2-.2-.35-.39-.53-.77-.51-1.92-.93-4.16-.95-6-2.14-.25-.16-.74,.04-1.12,.07Z"/>
  <path class="cls-35" d="M81.26,77.8c-1.02,1.89-2.47,3.47-3.74,5.17-.76,.73-1.3,1.72-2.39,2.07-.18,.12-.34,.09-.47-.08,2.39-2.26,4.14-5.05,6.25-7.55,.2,.05,.22,.26,.35,.39Z"/>
  <path class="cls-64" d="M52.24,78.88c-.04-.12-.09-.25-.13-.36-.66-2.32-2.73-2.76-4.74-1.02,.74-1.99,1.64-2.64,3.11-2.22,1.41,.4,2.12,1.87,1.76,3.6Z"/>
  <path class="cls-23" d="M79.57,60.41c-.34-.04-.68-.11-1.01-.1-2.04,.04-2.44,.7-1.64,2.71-1.15-.53-1.01-1.88-1.68-2.74-.38-.49,.35-.9,.99-.96,1.35-.12,2.48,.56,3.68,.98-.11,.04-.23,.08-.34,.11Z"/>
  <path class="cls-26" d="M66.21,60.24c.96-.52,1.38-1.39,1.46-2.57,.88,.49,1.83,.67,1.6,1.89-.73,1.53-1.84,1.37-3.06,.67Z"/>
  <path class="cls-48" d="M39.78,62.05c-.74,.48-1.58,.32-2.39,.35-.57-.17-1.38,1.01-1.73-.32,.24-.12,.5-.38,.7-.33,1.78,.31,3.03-.6,4.21-1.73,.44,.95-.54,1.35-.79,2.04Z"/>
  <path class="cls-79" d="M75.46,51.09c-.23-.2-.17-.43,.03-.55,1.45-.8,1.45-1.93,.83-3.26-.22-.45-.16-.51,.15-.63,.08-.03,.24,.2,.37,.3,1.29,2.65,.98,3.59-1.38,4.14Z"/>
  <path class="cls-21" d="M74.66,84.97c.16,.03,.32,.05,.47,.08-.28,.52-.04,1.73-1.33,.85-.41-.29-.87,.39-1.29,.64-.48,.28-.86,.62-1.18-.13,1.02-.69,2.01-1.46,3.33-1.44Z"/>
  <path class="cls-60" d="M56.96,42.15c.08-.69-.32-1.46,.35-2.05,.01,2.1,.12,2.22,1.65,1.69,.05,.52,.08,1.11-.52,1.25-.7,.17-1.04-.49-1.47-.89Z"/>
  <path class="cls-86" d="M80.94,61.03c-.41-.02-.66-.2-.68-.63,.44-.03,.88-.06,1.32-.08,.36,0,.72,.02,1.08,.02v2.04c-.11-1.08-.6-1.6-1.72-1.35Z"/>
  <path class="cls-83" d="M43.92,54.83c.6-.6,1.35-.22,2.03-.3,.19,1.26-.35,1.83-1.98,2.1l-.1-.1c.2-.25,.39-.51,.61-.74,.85-.94,.03-.87-.56-.95Z"/>
  <path class="cls-78" d="M35.94,38.22c-.77,.24-1.54,.31-2.3-.05,.78-.54,1.55-.67,2.3,.05Z"/>
  <path class="cls-73" d="M49.39,57.6c0,.85,.1,1.73-.65,2.36-.24,.13-.48,.26-.71,.38,0-.23,.01-.46,.02-.69,1-.33,.82-1.42,1.35-2.05Z"/>
  <path class="cls-3" d="M81.26,77.8c-.12-.12-.24-.25-.35-.39,.03-1.23,.06-2.46,.1-3.7,.11,.11,.23,.23,.34,.34-.03,1.25-.06,2.5-.08,3.74Z"/>
  <path class="cls-8" d="M57.63,72.31c0-.34,0-.69,0-1.03,.49,.43,.68,1.14,1.35,1.39,0,.22,0,.44,0,.66-.64-.1-1.05-.5-1.37-1.02Z"/>
  <path class="cls-30" d="M43.25,23.7c.23-1.05,.76-1.9,1.7-2.46-.47,.89-.75,1.91-1.7,2.46Z"/>
  <path class="cls-81" d="M80.62,32.54c-.93,.02-1.8-.52-2.76-.32-.17-1.18,.42-1.54,1.49-1.36,.93,.17,1.85,.36,1.27,1.68Z"/>
  <path class="cls-56" d="M23.99,30.16c-.11,0-.22,0-.33-.01,.05-.21,.07-.44,.16-.64,.27-.59,.68-1.1,1.39-.91,.5,.14,.54,.63,.36,1.12-.33,.92-.92,.81-1.59,.44Z"/>
  <path class="cls-50" d="M16.1,41.13c-.24,.94-.43,1.92-1.01,2.73-.01-.17,.04-.37-.03-.5-1.07-1.96-1.04-2.03,1.05-2.23Z"/>
  <path class="cls-6" d="M22.64,60.67c.39,.08,1.12-.08,.83,.64-.55,1.38-.57,2.95-1.52,4.18-.3-.23-.9-.24-.41-.9,.68-.92,1-1.79-.44-2.46-.41-.19-.53-1.02-.77-1.55,.89-.36,1.47,1.79,2.32,.09Z"/>
  <path class="cls-6" d="M22.64,58.28c-.02,.69,.78,1.37,.01,2.06-.73-1.34-2.44-.18-3.31-1.32-.21-.27-1-.18-.65-.84,.21-.4,.82-.76,1.13-.37,.85,1.06,1.87,.38,2.81,.46Z"/>
  <path class="cls-6" d="M13.3,44.26v3.74c-1.16-1.38-.6-2.4,0-3.74Z"/>
  <path class="cls-59" d="M61.05,88.46c.03,1.75,1.22,2.55,2.83,1.8,.69-.32,1.13-.58,1.84,.09,.43,.4,1.25,.11,1.83-.72,0,.74,.01,1.28,0,1.82-.01,.72-.5,.89-1.04,.69-.69-.26-1.18-1.01-1.94,.14-.35,.52-.15-.9-.86-.86-.4,.33-.39,.93-.83,1.34-.88,.81-1.42,1.34-1.54-.42-.02-.3-.26-.63-.47-.89-.85-1.07-.83-2.07,.19-3.01h0Z"/>
  <path class="cls-16" d="M28.81,84.33c-1.61,.17-2.63-1.31-4.14-1.47-.29-.04-.77-.55-.76-.82,.12-1.75-1.25-2.34-2.31-3.18,1.22-.19,2.13,.64,2.41,1.48,.75,2.21,2.87,2.55,4.4,3.69,.13,.1,.27,.21,.4,.31Z"/>
  <path class="cls-28" d="M89.52,77.13c-1.37-.48-.91-1.73-1.57-2.3-.01,0,.14-.31,.26-.34,.32-.08,.59,.1,.58,.43-.03,.72,.23,1.36,.73,2.21Z"/>
  <path class="cls-85" d="M62.42,45.59c0,.29-.07,.59,.01,.85,.43,1.54,1.09,2.95-1.62,3.08-.86,.04-1.29,1.71-1.13,2.92-.11,.87-.87,.71-1.5,.98-.37-1.68,1.08-2.94,.91-4.52-.11-1.07,.25-2.19-1.48-2.4-.27-.03-.95-1.72-.84-2.83,.8-.04,.91,.69,1.37,.93,.45-.23-.42-1.03,.43-1.02,.48,0,.65,.36,.54,.85-.03,.14,.04,.44,.12,.46,1.66,.41,1.41,1.67,1.39,2.97-.36-.95,1.2-.95,.73-2.14-.28-.7,.71,.13,1.06-.12Z"/>
  <path class="cls-29" d="M54.2,36.31c-.09-1.55-1.05-2.9-.78-4.61,.21-1.24,.49-1.7,1.72-1.57,.82,.08,1.65,.02,2.49,.01,.01,.39-.08,.93,.29,1.09,1.71,.76,1.11,2.19,1.07,3.44-.05,1.39-1.18,2.01-2.61,1.79-.7-.1-1.4-.89-2.16-.16Z"/>
  <path class="cls-66" d="M40.5,47.99c-.6-.52-1.52-.07-2.08-.69,1.06-1.28,2.49-1.19,3.63-.5,.98,.59,1.39,.32,1.79-.43,.64,.28-.18,.93,.38,1.02,.4,.06,.66-.31,.72-.79,.13-.9,.77-1.73,.34-2.7,.11-.02,.22-.03,.34-.04,.67-.18,1.01-.02,.73,.73-.17,.48-.47,.93,.18,1.28,.72,.33,1.52,.61,1.16,1.69-.09,.24,0,.42,.27,.49,1.54,.37,1.08,1.38,.74,2.34-.93,1.33-1.67,.72-2.45-.19-.31-.36-.95-1.35-.98,.19-.38,.01-.51-.77-1.04-.33-.26-.16-.32-.41-.32-.69-.84-1.2-2.13-1.27-3.41-1.38Z"/>
  <path class="cls-19" d="M48.71,50.39c-.03-1.21,.09-2.56-2.53-1.5,1.77-1.55,1.03-2.28,.12-2.97-.09-.08-.13-.16-.09-.24,.03-.08,.06-.12,.1-.12,2.12,.18,3.94,1.13,5.73,2.17,.21,.12,0,2.53-.26,2.8-.67,.67-1.2,.73-1.7-.25-.44-.85-.88,.4-1.37,.1Z"/>
  <path class="cls-43" d="M43.97,56.62c.86-.5,1.93-.82,1.98-2.1-.46-.61-1.13-.28-1.71-.38,.84-1.83,.92-1.83,2.33-.06,.38-.41-.35-.68-.05-1.12,1.3,.62,2.55,.63,3.58-.7,.99,1.03-.37,1.73-.38,2.59-1.31,.02-2.15,1.06-3.1,1.68-.44,.28-.38,.75-.84,.1-.14-.2-.38-.26-.48,.06-.54,1.67-.89,0-1.33-.07Z"/>
  <path class="cls-27" d="M46.31,45.57c0,.12,0,.24-.01,.36-.48-.39-.42-.88-.17-1.33,.37-.66-.43-.43-.52-.73-.23-.8-.46-1.6-.69-2.39,.34,0,.68,0,1.03,0,.28-.14,.57-.28,.86-.41,.18,.72,.6,1.48,.23,2.17-.41,.76-.48,1.58-.73,2.35Z"/>
  <path class="cls-41" d="M37.73,46.96c-.57-.05-1.14-.49-1.71,0-1.24-.33-2.4,.77-3.77-.06-1.66-1-2.53-2.43-2.66-4.18-.16-1.98,1.5-2.65,3.02-3.28-.13,.81-.86,1.51-.38,2.34-.4,.47-.7,.15-.98,.04-.36-.13-.64-.23-.8,.24-.17,.45,.14,.59,.45,.75,.61,.31,1.07,.48,1.02,1.52-.03,.74,1.68,.93,2.1,1.96,.41-.41,1.11-.61,.98-1.4h0c1.05,.36,1.75,1.97,3.17,.75,.22,.67-.55,.81-.42,1.31Z"/>
  <path class="cls-41" d="M34.98,44.9c-1.35,.17-.37-1.05-.9-1.37,1.06,0,.87,.75,.9,1.37h0Z"/>
  <path class="cls-89" d="M49.11,63.7v-2.96c.06,0,.12,0,.18,0v2.97h-.18Z"/>
  <path class="cls-27" d="M40.5,47.99c1.65-.85,2.73,.16,3.81,1.17,.01,0-.04,.12-.08,.13-.1,.04-.22,.05-.32,.08-1.14-.46-2.28-.92-3.41-1.38Z"/>
</svg>